<svg viewBox="0 0 25 25" xmlns="http://www.w3.org/2000/svg">
<path d="M19.1111 3.9H18.1667V2H16.2778V3.9H8.72222V2H6.83333V3.9H5.88889C4.84056 3.9 4.00944 4.755 4.00944 5.8L4 19.1C4 20.145 4.84056 21 5.88889 21H19.1111C20.15 21 21 20.145 21 19.1V5.8C21 4.755 20.15 3.9 19.1111 3.9ZM19.1111 19.1H5.88889V8.65H19.1111V19.1ZM7.77778 10.55H12.5V15.3H7.77778V10.55Z"/>
<path d="M19.1111 3.9H18.1667V2H16.2778V3.9H8.72222V2H6.83333V3.9H5.88889C4.84056 3.9 4.00944 4.755 4.00944 5.8L4 19.1C4 20.145 4.84056 21 5.88889 21H19.1111C20.15 21 21 20.145 21 19.1V5.8C21 4.755 20.15 3.9 19.1111 3.9ZM19.1111 19.1H5.88889V8.65H19.1111V19.1ZM7.77778 10.55H12.5V15.3H7.77778V10.55Z"/>
</svg>
