<svg viewBox="0 0 24 57" xmlns="http://www.w3.org/2000/svg">
<path fill-rule="evenodd" clip-rule="evenodd" d="M23.1429 26.4263V11.9345C23.1429 5.81405 18.154 0.852462 12 0.852462C5.84598 0.852462 0.857143 5.81405 0.857143 11.9345V26.4263C0.857143 32.5467 5.84598 37.5083 12 37.5083C18.154 37.5083 23.1429 32.5467 23.1429 26.4263ZM12 0C5.37263 0 0 5.34329 0 11.9345V26.4263C0 33.0175 5.37263 38.3608 12 38.3608C18.6274 38.3608 24 33.0175 24 26.4263V11.9345C24 5.34329 18.6274 0 12 0ZM3.94503 45.1351C4.08859 44.9478 4.3577 44.912 4.54562 45.0548L12.4215 51.0324L19.8742 45.0616C20.0583 44.9141 20.3283 44.9428 20.4764 45.1262C20.5677 45.2387 20.5919 45.3836 20.5543 45.5126C20.5308 45.5936 20.4827 45.6685 20.4116 45.7255L12.6973 51.9059C12.6115 51.9746 12.5056 52.0058 12.4014 51.9991C12.3189 51.9939 12.2377 51.9652 12.1687 51.9128L4.02581 45.7324C3.83747 45.5896 3.80148 45.3222 3.94503 45.1351ZM12 7.24592C11.0533 7.24592 10.2857 8.00931 10.2857 8.95085V13.2132C10.2857 14.1547 11.0533 14.9181 12 14.9181C12.9467 14.9181 13.7143 14.1547 13.7143 13.2132V8.95085C13.7143 8.00931 12.9467 7.24592 12 7.24592Z"/>
<path d="M3.94533 50.135C4.08888 49.9477 4.35799 49.9119 4.54591 50.0547L12.4217 56.0323L19.8745 50.0616C20.0586 49.914 20.3286 49.9427 20.4767 50.1261C20.568 50.2387 20.5922 50.3835 20.5546 50.5126C20.5311 50.5935 20.483 50.6685 20.4118 50.7255L12.6976 56.9058C12.6118 56.9745 12.5059 57.0057 12.4017 56.9991C12.3192 56.9939 12.238 56.9651 12.169 56.9127L4.0261 50.7324C3.83777 50.5896 3.80177 50.3221 3.94533 50.135Z"/>
</svg>
