<svg width="18" height="17" viewBox="0 0 18 17" fill="none" xmlns="http://www.w3.org/2000/svg">
<path fill-rule="evenodd" clip-rule="evenodd" d="M13.957 4.94833C14.0097 4.93222 14.079 4.96444 14.1483 5.05306C14.1483 5.05306 14.1483 5.05306 17.2807 8.02306C17.4637 8.2003 17.4637 8.46883 17.2807 8.60041C17.2807 8.60041 17.2807 8.60041 14.1483 11.6161C14.079 11.7047 14.0097 11.7262 13.957 11.6993C13.9044 11.6725 13.8711 11.5946 13.8711 11.4818V5.14167C13.8711 5.03157 13.9044 4.96444 13.957 4.94833Z" fill="#ED1C24"/>
<path fill-rule="evenodd" clip-rule="evenodd" d="M8.59713 0H8.81889L9.03234 0.0859318C9.03234 0.0859318 9.03234 0.0859316 12.2563 3.19021C12.3949 3.36744 12.3477 3.50171 12.1177 3.50171C12.1177 3.50171 12.1177 3.50171 10.7815 3.50171C10.5514 3.50171 10.3685 3.67894 10.3685 3.90183C10.3685 3.90183 10.3685 3.90182 10.3685 6.20586C10.3685 6.42875 10.1828 6.60598 9.90555 6.60598C9.90555 6.60598 9.90555 6.60598 7.5576 6.60598C7.32752 6.60598 7.14179 6.42875 7.14179 6.20586C7.14179 6.20586 7.14179 6.20586 7.14179 3.90183C7.14179 3.67894 6.95883 3.50171 6.72598 3.50171H5.29836C5.06827 3.50171 5.02115 3.36744 5.15975 3.19021C5.15975 3.19021 5.15975 3.19021 8.38645 0.0859318L8.59713 0Z" fill="#ED1C24"/>
<path fill-rule="evenodd" clip-rule="evenodd" d="M3.54687 4.88167C3.60509 4.90852 3.64112 4.98639 3.64112 5.09918V11.5709C3.64112 11.6837 3.60509 11.7508 3.54687 11.7723C3.49143 11.7938 3.41104 11.7723 3.31679 11.7052C3.31679 11.7052 3.31679 11.7052 0.137218 8.60089C-0.0457393 8.4693 -0.0457393 8.20077 0.137218 8.02353C0.137218 8.02353 0.137218 8.02353 3.31679 4.96491C3.41104 4.87629 3.49143 4.85481 3.54687 4.88167Z" fill="#ED1C24"/>
<path fill-rule="evenodd" clip-rule="evenodd" d="M7.56308 9.97534C7.56308 9.97534 7.56308 9.97534 9.91103 9.97534C10.1882 9.97534 10.374 10.1526 10.374 10.3755C10.374 10.3755 10.374 10.3755 10.374 12.8138C10.374 13.0796 10.5569 13.2568 10.787 13.2568H12.0317C12.2618 13.2568 12.3532 13.3884 12.1703 13.5227C12.1703 13.5227 12.1703 13.5227 9.03783 16.5813C8.94358 16.6699 8.82992 16.7156 8.7135 16.7156C8.59984 16.7156 8.48341 16.6699 8.39194 16.5813C8.39194 16.5813 8.39193 16.5813 5.25949 13.5227C5.07376 13.3884 5.16524 13.2568 5.39532 13.2568C5.39532 13.2568 5.39532 13.2568 6.73146 13.2568C6.96431 13.2568 7.14727 13.0796 7.14727 12.8138C7.14727 12.8138 7.14727 12.8138 7.14727 10.3755C7.14727 10.1526 7.333 9.97534 7.56308 9.97534Z" fill="#ED1C24"/>
</svg>
