<svg width="24" height="24" viewBox="0 0 24 24" fill="none" xmlns="http://www.w3.org/2000/svg">
<path d="M7.61572 15.1325C7.7673 15.7994 8.39635 16.4436 9.34372 16.4436C10.7761 16.4436 11.4582 15.0643 11.4582 13.6318C11.4582 12.0478 10.8822 10.8276 9.44983 10.8276C8.01741 10.8276 7.44141 11.8963 7.44141 12.7982C7.44141 13.7001 8.01741 14.7005 9.44983 14.7005C9.97277 14.7005 10.4881 14.3064 10.6852 13.9502C10.617 14.8672 10.2305 15.6857 9.34372 15.6857C8.80562 15.6857 8.51762 15.3902 8.41151 15.1325H7.61572ZM9.44983 11.5855C10.3214 11.5855 10.6018 12.3586 10.6776 12.9497C10.5942 13.2529 10.1774 13.9426 9.44983 13.9426C8.37362 13.9426 8.1993 13.1165 8.1993 12.7982C8.1993 12.4798 8.37362 11.5855 9.44983 11.5855Z" fill="black"/>
<path d="M14.2237 10.8276C12.7913 10.8276 12.2153 12.207 12.2153 13.6394C12.2153 15.0718 12.7913 16.4436 14.2237 16.4436C15.6561 16.4436 16.2321 15.0718 16.2321 13.6394C16.2321 12.207 15.6561 10.8276 14.2237 10.8276ZM14.2237 15.6857C13.1475 15.6857 12.9731 14.4883 12.9731 13.6394C12.9731 12.7906 13.1475 11.5855 14.2237 11.5855C15.2999 11.5855 15.4742 12.7906 15.4742 13.6394C15.4742 14.4883 15.2999 15.6857 14.2237 15.6857Z" fill="black"/>
<path d="M19.5 3.75H4.5C4.08579 3.75 3.75 4.08579 3.75 4.5V19.5C3.75 19.9142 4.08579 20.25 4.5 20.25H19.5C19.9142 20.25 20.25 19.9142 20.25 19.5V4.5C20.25 4.08579 19.9142 3.75 19.5 3.75Z" stroke="black" stroke-linecap="round" stroke-linejoin="round"/>
<path d="M16.5 2.25V5.25" stroke="black" stroke-linecap="round" stroke-linejoin="round"/>
<path d="M7.5 2.25V5.25" stroke="black" stroke-linecap="round" stroke-linejoin="round"/>
<path d="M3.75 8.25H20.25" stroke="black" stroke-linecap="round" stroke-linejoin="round"/>
</svg>
