<svg width="24" height="24" viewBox="0 0 24 24" fill="none" xmlns="http://www.w3.org/2000/svg">
<path d="M12 7.5V12" stroke="black" stroke-linecap="round" stroke-linejoin="round"/>
<path d="M15.9 14.25L12 12" stroke="black" stroke-linecap="round" stroke-linejoin="round"/>
<path d="M17.2656 9.34668H21.0156V5.59668" stroke="black" stroke-linecap="round" stroke-linejoin="round"/>
<path d="M17.8321 17.8313C16.6786 18.9857 15.2086 19.7721 13.6081 20.091C12.0075 20.4099 10.3484 20.2469 8.84051 19.6227C7.33263 18.9984 6.04376 17.941 5.13694 16.5842C4.23012 15.2273 3.74609 13.632 3.74609 12C3.74609 10.368 4.23012 8.7727 5.13694 7.41585C6.04376 6.059 7.33263 5.00158 8.84051 4.37735C10.3484 3.75313 12.0075 3.59014 13.6081 3.90902C15.2086 4.22789 16.6786 5.0143 17.8321 6.16875L21.0196 9.34688" stroke="black" stroke-linecap="round" stroke-linejoin="round"/>
</svg>
