<svg width="42" height="43" viewBox="0 0 42 43" fill="none" xmlns="http://www.w3.org/2000/svg">
<path fill-rule="evenodd" clip-rule="evenodd" d="M10.1002 0.157938C10.2084 0.0564891 10.3514 0 10.5 0H18.0833H22.75H32.6667C32.8279 0 32.9819 0.0664805 33.0922 0.183656L41.8422 9.48095C41.8681 9.50848 41.891 9.53808 41.9106 9.56925C41.9589 9.64573 41.9881 9.73173 41.997 9.82009C41.999 9.83927 42 9.85856 42 9.87788C42 9.8802 42 9.88252 42 9.88483V42.4189C42 42.7398 41.7388 43 41.4166 43H0.583333C0.261167 43 0 42.7398 0 42.4189L3.78672e-10 9.87851C3.78672e-10 9.7101 0.071919 9.5583 0.186831 9.45217L10.1002 0.157938ZM2.05427 9.2973H14.1791L17.2416 1.16216H10.7313L2.05427 9.2973ZM15.4251 9.2973H25.4082L22.3457 1.16216H18.4876L15.4251 9.2973ZM26.6542 9.2973H40.0702L32.4139 1.16216H23.5917L26.6542 9.2973ZM1.16667 10.4595V41.8378H40.8333V10.4595H26.8333V12.2027C26.8333 12.5236 26.5721 12.7838 26.25 12.7838H14.5833C14.2612 12.7838 14 12.5236 14 12.2027V10.4595H1.16667ZM15.1667 10.4595V11.6216H25.6666V10.4595H15.1667Z" fill="#ED1C24"/>
<path fill-rule="evenodd" clip-rule="evenodd" d="M26.2703 22.7383C26.3271 22.7205 26.4018 22.7561 26.4765 22.8538C26.4765 22.8538 26.4765 22.8538 29.8523 26.1308C30.0495 26.3264 30.0495 26.6227 29.8523 26.7678C29.8523 26.7678 29.8523 26.7678 26.4765 30.0952C26.4018 30.193 26.3271 30.2167 26.2703 30.187C26.2136 30.1574 26.1777 30.0715 26.1777 29.947V22.9516C26.1777 22.8301 26.2136 22.7561 26.2703 22.7383Z" fill="#ED1C24"/>
<path fill-rule="evenodd" clip-rule="evenodd" d="M20.4957 17.2778H20.7347L20.9648 17.3726C20.9648 17.3726 20.9648 17.3726 24.4392 20.7978C24.5886 20.9933 24.5378 21.1415 24.2898 21.1415C24.2898 21.1415 24.2898 21.1415 22.8499 21.1415C22.6019 21.1415 22.4047 21.337 22.4047 21.5829C22.4047 21.5829 22.4047 21.5829 22.4047 24.1251C22.4047 24.371 22.2046 24.5666 21.9058 24.5666C21.9058 24.5666 21.9058 24.5666 19.3754 24.5666C19.1275 24.5666 18.9273 24.371 18.9273 24.1251C18.9273 24.1251 18.9273 24.1251 18.9273 21.5829C18.9273 21.337 18.7301 21.1415 18.4792 21.1415H16.9407C16.6927 21.1415 16.6419 20.9933 16.7913 20.7978C16.7913 20.7978 16.7913 20.7978 20.2687 17.3726L20.4957 17.2778Z" fill="#ED1C24"/>
<path fill-rule="evenodd" clip-rule="evenodd" d="M15.0524 22.6644C15.1152 22.694 15.154 22.78 15.154 22.9044V30.045C15.154 30.1694 15.1152 30.2435 15.0524 30.2672C14.9927 30.2909 14.9061 30.2672 14.8045 30.1932C14.8045 30.1932 14.8045 30.1932 11.3779 26.768C11.1807 26.6228 11.1807 26.3266 11.3779 26.131C11.3779 26.131 11.3779 26.131 14.8045 22.7562C14.9061 22.6585 14.9927 22.6348 15.0524 22.6644Z" fill="#ED1C24"/>
<path fill-rule="evenodd" clip-rule="evenodd" d="M19.3753 28.285C19.3753 28.285 19.3753 28.285 21.9057 28.285C22.2044 28.285 22.4046 28.4806 22.4046 28.7265C22.4046 28.7265 22.4046 28.7265 22.4046 31.4168C22.4046 31.7102 22.6017 31.9057 22.8497 31.9057H24.1911C24.439 31.9057 24.5376 32.0509 24.3404 32.199C24.3404 32.199 24.3404 32.199 20.9646 35.5738C20.863 35.6716 20.7405 35.7219 20.6151 35.7219C20.4926 35.7219 20.3671 35.6716 20.2685 35.5738C20.2685 35.5738 20.2685 35.5738 16.8927 32.199C16.6925 32.0509 16.7911 31.9057 17.0391 31.9057C17.0391 31.9057 17.0391 31.9057 18.479 31.9057C18.73 31.9057 18.9272 31.7102 18.9272 31.4168C18.9272 31.4168 18.9272 31.4168 18.9272 28.7265C18.9272 28.4806 19.1273 28.285 19.3753 28.285Z" fill="#ED1C24"/>
</svg>
