<svg width="149" height="30" viewBox="0 0 149 30" fill="none" xmlns="http://www.w3.org/2000/svg">
<rect x="0.5" y="0.5" width="148" height="29" rx="9.5" stroke="#ED1C24"/>
<path fill-rule="evenodd" clip-rule="evenodd" d="M70.4316 10.1962C70.4316 10.1962 70.4316 10.1962 79.0976 10.1962C79.8946 10.1962 80.3921 10.5885 80.3921 11.4741C80.3921 11.4741 80.3921 11.4741 80.3921 18.9335C80.3921 19.0286 80.3921 19.0286 80.4939 19.0286C80.4939 19.0286 80.4939 19.0286 81.291 19.0286C81.291 19.0286 81.291 19.0286 81.291 21.1922C81.291 21.1922 81.291 21.1922 79.1994 21.1922C78.3005 21.1922 77.9049 20.7999 77.9049 19.9142C77.9049 19.9142 77.9049 19.9142 77.9049 12.3597C77.9049 12.3597 77.9049 12.2587 77.8031 12.2587C77.8031 12.2587 77.8031 12.2587 73.8177 12.2587C73.8177 12.2587 73.8177 12.2587 73.8177 21.1922C73.8177 21.1922 73.8177 21.1922 71.4265 21.1922C71.4265 21.1922 71.4265 21.1922 71.4265 12.2587C71.4265 12.2587 71.4265 12.2587 70.4316 12.2587C70.4316 12.2587 70.4316 12.2587 70.4316 10.1962Z" fill="#ED1C24"/>
<path fill-rule="evenodd" clip-rule="evenodd" d="M87.5657 10L87.6136 10.0059V12.2705L87.5657 12.2586C85.7678 12.2586 84.3774 13.7327 84.3774 15.599C84.3774 17.5605 85.7678 19.1296 87.5657 19.1296L87.6136 19.1178V21.3823L87.5657 21.3883C84.3774 21.3883 81.8843 18.8325 81.8843 15.599C81.8843 12.4548 84.3774 10 87.5657 10Z" fill="#ED1C24"/>
<path fill-rule="evenodd" clip-rule="evenodd" d="M87.6138 10.006L88.7584 10.113C91.4373 10.6241 93.3431 12.8471 93.3431 15.5991C93.3431 18.4283 91.4373 20.7404 88.7584 21.2694L87.6138 21.3824V19.1178L88.8783 18.8563C90.0709 18.3213 90.856 17.0672 90.856 15.5991C90.856 14.1963 90.0709 13.0195 88.8783 12.5202L87.6138 12.2706V10.006Z" fill="#ED1C24"/>
<path fill-rule="evenodd" clip-rule="evenodd" d="M93.8403 10.1962C93.8403 10.1962 93.8403 10.1962 96.0338 10.1962C96.8309 10.1962 97.2264 10.5885 97.2264 11.4741C97.2264 11.4741 97.2264 11.4741 97.2264 18.9335C97.2264 19.0286 97.2264 19.0286 97.3283 19.0286C97.3283 19.0286 97.3283 19.0286 100.217 19.0286C100.217 19.0286 100.217 19.0286 100.217 10.1962C100.217 10.1962 100.217 10.1962 102.608 10.1962C102.608 10.1962 102.608 10.1962 102.608 19.0286C102.608 19.0286 102.608 19.0286 105.497 19.0286C105.599 19.0286 105.599 19.0286 105.599 18.9335C105.599 18.9335 105.599 18.9335 105.599 11.4741C105.599 10.5885 105.994 10.1962 106.791 10.1962C106.791 10.1962 106.791 10.1962 108.985 10.1962C108.985 10.1962 108.985 10.1962 108.985 12.2587C108.985 12.2587 108.985 12.2587 108.086 12.2587C107.984 12.2587 107.984 12.3597 107.984 12.3597C107.984 12.3597 107.984 12.3597 107.984 19.9142C107.984 20.7999 107.588 21.1922 106.791 21.1922C106.791 21.1922 106.791 21.1922 96.1297 21.1922C95.2367 21.1922 94.8352 20.7999 94.8352 19.9142C94.8352 19.9142 94.8352 19.9142 94.8352 12.3597C94.8352 12.3597 94.8352 12.2587 94.7393 12.2587C94.7393 12.2587 94.7393 12.2587 93.8403 12.2587C93.8403 12.2587 93.8403 12.2587 93.8403 10.1962Z" fill="#ED1C24"/>
<path fill-rule="evenodd" clip-rule="evenodd" d="M110.873 10.1962C110.873 10.1962 110.873 10.1962 118.346 10.1962C119.245 10.1962 119.545 10.5885 119.545 11.373C119.545 11.373 119.545 11.373 119.545 13.2394H117.351C117.351 13.2394 117.351 13.2394 117.351 12.3597C117.351 12.2587 117.351 12.2587 117.249 12.2587C117.249 12.2587 117.249 12.2587 115.859 12.2587C115.859 12.2587 115.859 12.2587 115.859 21.1922C115.859 21.1922 115.859 21.1922 113.462 21.1922C113.462 21.1922 113.462 21.1922 113.462 12.2587C113.462 12.2587 113.462 12.2587 112.071 12.2587C111.969 12.2587 111.969 12.2587 111.969 12.3597C111.969 12.3597 111.969 12.3597 111.969 13.2394C111.969 13.2394 111.969 13.2394 109.776 13.2394C109.776 13.2394 109.776 13.2394 109.776 11.373C109.776 10.5885 110.076 10.1962 110.873 10.1962Z" fill="#ED1C24"/>
<path fill-rule="evenodd" clip-rule="evenodd" d="M122.631 10.1962C122.631 10.1962 122.631 10.1962 123.638 10.1962H123.823V13.3404C123.722 13.5366 123.626 13.8278 123.626 14.125C123.626 14.125 123.626 14.125 122.829 16.3836C122.829 16.3836 122.829 16.3836 123.668 16.3836H123.823V18.4402H123.284C122.978 18.4402 122.631 18.4402 122.229 18.4402C122.229 18.4402 122.229 18.4402 121.534 20.1104C121.336 20.895 120.935 21.1922 120.138 21.1922C120.138 21.1922 120.138 21.1922 118.646 21.1922C118.646 21.1922 118.646 21.1922 118.646 19.0286C118.646 19.0286 118.646 19.0286 119.143 19.0286C119.347 19.0286 119.347 19.0286 119.443 18.9335C119.443 18.9335 119.443 18.9335 122.631 10.1962Z" fill="#ED1C24"/>
<path fill-rule="evenodd" clip-rule="evenodd" d="M123.824 10.1962H125.016C125.016 10.1962 125.016 10.1962 128.211 18.9335C128.307 19.0286 128.307 19.0286 128.51 19.0286H128.906C128.906 19.0286 128.906 19.0286 128.906 21.1922C128.906 21.1922 128.906 21.1922 127.509 21.1922C126.712 21.1922 126.317 20.895 126.113 20.1104C126.113 20.1104 126.113 20.1104 125.418 18.4402C125.418 18.4402 125.418 18.4402 124.075 18.4402H123.824V16.3836H124.819C124.819 16.3836 124.819 16.3836 124.021 14.125C124.021 13.8278 123.926 13.5366 123.824 13.3404V10.1962Z" fill="#ED1C24"/>
<path fill-rule="evenodd" clip-rule="evenodd" d="M21 10.1962C21 10.1962 21 10.1962 23.1875 10.1962C23.9845 10.1962 24.3861 10.5885 24.3861 11.4741C24.3861 11.4741 24.3861 11.4741 24.3861 14.6124C24.3861 14.6124 24.3861 14.6124 28.6711 14.6124C28.6711 14.6124 28.6711 14.6124 28.6711 11.4741C28.6711 10.5885 29.0666 10.1962 29.9656 10.1962C29.9656 10.1962 29.9656 10.1962 32.0571 10.1962C32.0571 10.1962 32.0571 10.1962 32.0571 12.2587C32.0571 12.2587 32.0571 12.2587 31.1642 12.2587L31.0623 12.3597C31.0623 12.3597 31.0623 12.3597 31.0623 21.1922C31.0623 21.1922 31.0623 21.1922 28.6711 21.1922C28.6711 21.1922 28.6711 21.1922 28.6711 16.7759C28.6711 16.7759 28.6711 16.7759 24.3861 16.7759C24.3861 16.7759 24.3861 16.7759 24.3861 21.1922C24.3861 21.1922 24.3861 21.1922 21.9948 21.1922C21.9948 21.1922 21.9948 21.1922 21.9948 12.3597C21.9948 12.3597 21.9948 12.2587 21.893 12.2587C21.893 12.2587 21.893 12.2587 21 12.2587C21 12.2587 21 12.2587 21 10.1962Z" fill="#ED1C24"/>
<path fill-rule="evenodd" clip-rule="evenodd" d="M38.332 10L38.3859 10.0059V12.2705L38.332 12.2586C36.5401 12.2586 35.1437 13.7327 35.1437 15.599C35.1437 17.5605 36.5401 19.1296 38.332 19.1296L38.3859 19.1178V21.3823L38.332 21.3883C35.1437 21.3883 32.5547 18.8384 32.5547 15.599C32.5547 12.4548 35.1437 10 38.332 10Z" fill="#ED1C24"/>
<path fill-rule="evenodd" clip-rule="evenodd" d="M38.3857 10.006L39.4945 10.113C42.1254 10.6241 44.1091 12.8471 44.1091 15.5991C44.1091 18.4283 42.1254 20.7404 39.4945 21.2694L38.3857 21.3824V19.1178L39.6023 18.8563C40.777 18.3213 41.622 17.0672 41.622 15.5991C41.622 14.1963 40.777 13.0195 39.6023 12.5202L38.3857 12.2706V10.006Z" fill="#ED1C24"/>
<path fill-rule="evenodd" clip-rule="evenodd" d="M44.6064 10.1962C44.6064 10.1962 44.6064 10.1962 47.9446 10.1962H49.5387V12.2587H49.3889C49.1911 12.2587 48.7896 12.2587 47.9925 12.2587C47.9925 12.2587 47.9925 12.2587 47.9925 14.5173C47.9925 14.5173 47.9925 14.5173 48.6697 14.5173H49.5387V16.4787H49.0293C48.7776 16.4787 48.442 16.4787 47.9925 16.4787C47.9925 16.4787 47.9925 16.4787 47.9925 18.9335C47.9925 19.0346 47.9925 19.0346 48.0944 19.0346C48.0944 19.0346 48.0944 19.0346 48.8076 19.0346H49.5387V21.1922H49.329C48.9694 21.1922 48.2442 21.1922 46.7999 21.1922C46.0028 21.1922 45.6073 20.7999 45.6073 19.9142V12.2587C45.6073 12.2587 45.6073 12.2587 44.6064 12.2587C44.6064 12.2587 44.6064 12.2587 44.6064 10.1962Z" fill="#ED1C24"/>
<path fill-rule="evenodd" clip-rule="evenodd" d="M49.5386 10.1962H49.5865C51.78 10.1962 53.0745 11.373 53.0745 13.1443C53.0745 14.2201 52.577 14.9096 52.0796 15.4029C52.9786 15.7952 53.5719 16.7759 53.5719 17.8517C53.5719 19.9142 51.9777 21.1922 49.6884 21.1922C49.6884 21.1922 49.6884 21.1922 49.6464 21.1922H49.5386V19.0346H49.7843C50.5814 19.0346 51.0848 18.5412 51.0848 17.7566C51.0848 16.9721 50.5814 16.4787 49.7843 16.4787C49.7843 16.4787 49.7843 16.4787 49.5625 16.4787H49.5386V14.5173H49.5865C50.2877 14.5173 50.6832 14.024 50.6832 13.3404C50.6832 12.6509 50.2877 12.2587 49.5865 12.2587C49.5865 12.2587 49.5865 12.2587 49.5625 12.2587H49.5386V10.1962Z" fill="#ED1C24"/>
<path fill-rule="evenodd" clip-rule="evenodd" d="M58.1567 10.1962C58.1567 10.1962 58.1567 10.1962 59.1636 10.1962H59.3494V13.3404C59.2535 13.5366 59.1516 13.8278 59.1516 14.125C59.1516 14.125 59.1516 14.125 58.3545 16.3836C58.3545 16.3836 58.3545 16.3836 59.1995 16.3836H59.3494V18.4402H58.81C58.5043 18.4402 58.1567 18.4402 57.7612 18.4402C57.7612 18.4402 57.7612 18.4402 57.06 20.2114C56.8623 20.895 56.4667 21.1922 55.6696 21.1922C55.6696 21.1922 55.6696 21.1922 54.1714 21.1922C54.1714 21.1922 54.1714 21.1922 54.1714 19.0346C54.1714 19.0346 54.1714 19.0346 54.6688 19.0346C54.8726 19.0346 54.8726 19.0346 54.9685 18.9335C54.9685 18.9335 54.9685 18.9335 58.1567 10.1962Z" fill="#ED1C24"/>
<path fill-rule="evenodd" clip-rule="evenodd" d="M59.3496 10.1962H60.5482C60.5482 10.1962 60.5482 10.1962 63.7365 18.9335C63.8324 19.0346 63.8324 19.0346 64.0302 19.0346C64.0302 19.0346 64.0302 19.0346 64.4317 19.0346C64.4317 19.0346 64.4317 19.0346 64.4317 21.1922C64.4317 21.1922 64.4317 21.1922 63.0353 21.1922C62.2382 21.1922 61.8427 20.895 61.6389 20.1104C61.6389 20.1104 61.6389 20.1104 60.9438 18.4402C60.9438 18.4402 60.9438 18.4402 59.6013 18.4402H59.3496V16.3836H60.3445C60.3445 16.3836 60.3445 16.3836 59.5534 14.125C59.5534 13.8278 59.4515 13.5366 59.3496 13.3404V10.1962Z" fill="#ED1C24"/>
</svg>
