<svg width="20" height="20" viewBox="0 0 20 20" fill="none" xmlns="http://www.w3.org/2000/svg">
<path fill-rule="evenodd" clip-rule="evenodd" d="M16.0259 5.92116C16.0864 5.90188 16.166 5.94044 16.2456 6.04646C16.2456 6.04646 16.2456 6.04646 19.8426 9.59988C20.0527 9.81193 20.0527 10.1332 19.8426 10.2906C19.8426 10.2906 19.8426 10.2906 16.2456 13.8987C16.166 14.0047 16.0864 14.0304 16.0259 13.9983C15.9654 13.9662 15.9272 13.873 15.9272 13.738V6.15248C15.9272 6.02076 15.9654 5.94043 16.0259 5.92116Z" fill="#ED1C24"/>
<path fill-rule="evenodd" clip-rule="evenodd" d="M9.87332 0H10.128L10.3731 0.102812C10.3731 0.102812 10.3731 0.102812 14.0751 3.81688C14.2343 4.02892 14.1802 4.18957 13.916 4.18957C13.916 4.18957 13.916 4.18957 12.3817 4.18957C12.1175 4.18957 11.9074 4.40162 11.9074 4.66828C11.9074 4.66828 11.9074 4.66828 11.9074 7.42492C11.9074 7.69158 11.6941 7.90363 11.3758 7.90363C11.3758 7.90363 11.3758 7.90363 8.67962 7.90363C8.41542 7.90363 8.20214 7.69158 8.20214 7.42492C8.20214 7.42492 8.20214 7.42492 8.20214 4.66828C8.20214 4.40162 7.99205 4.18957 7.72466 4.18957H6.08532C5.82112 4.18957 5.767 4.02892 5.92616 3.81688C5.92616 3.81688 5.92616 3.81688 9.63139 0.102812L9.87332 0Z" fill="#ED1C24"/>
<path fill-rule="evenodd" clip-rule="evenodd" d="M4.07289 5.84094C4.13974 5.87307 4.18112 5.96624 4.18112 6.10118V13.8442C4.18112 13.9791 4.13974 14.0594 4.07289 14.0851C4.00923 14.1108 3.91691 14.0851 3.80869 14.0048C3.80869 14.0048 3.80868 14.0048 0.157568 10.2908C-0.0525226 10.1333 -0.0525226 9.81204 0.157568 9.59999C0.157568 9.59999 0.157568 9.59999 3.80869 5.94054C3.91691 5.83452 4.00923 5.80881 4.07289 5.84094Z" fill="#ED1C24"/>
<path fill-rule="evenodd" clip-rule="evenodd" d="M8.67872 11.9357C8.67872 11.9357 8.67873 11.9357 11.3749 11.9357C11.6932 11.9357 11.9065 12.1478 11.9065 12.4144C11.9065 12.4144 11.9065 12.4144 11.9065 15.3317C11.9065 15.6498 12.1166 15.8618 12.3808 15.8618H13.81C14.0742 15.8618 14.1793 16.0193 13.9692 16.1799C13.9692 16.1799 13.9692 16.1799 10.3722 19.8394C10.264 19.9454 10.1334 20 9.99975 20C9.86924 20 9.73554 19.9454 9.6305 19.8394C9.6305 19.8394 9.6305 19.8394 6.0335 16.1799C5.82022 16.0193 5.92527 15.8618 6.18947 15.8618C6.18947 15.8618 6.18947 15.8618 7.72377 15.8618C7.99116 15.8618 8.20125 15.6498 8.20125 15.3317C8.20125 15.3317 8.20125 15.3317 8.20125 12.4144C8.20125 12.1478 8.41452 11.9357 8.67872 11.9357Z" fill="#ED1C24"/>
</svg>
