<svg width="38" height="38" viewBox="0 0 38 38" fill="none" xmlns="http://www.w3.org/2000/svg">
<path d="M12.8761 23.96C13.1161 25.016 14.1121 26.036 15.6121 26.036C17.8801 26.036 18.9601 23.852 18.9601 21.584C18.9601 19.076 18.0481 17.144 15.7801 17.144C13.5121 17.144 12.6001 18.836 12.6001 20.264C12.6001 21.692 13.5121 23.276 15.7801 23.276C16.6081 23.276 17.4241 22.652 17.7361 22.088C17.6281 23.54 17.0161 24.836 15.6121 24.836C14.7601 24.836 14.3041 24.368 14.1361 23.96H12.8761ZM15.7801 18.344C17.1601 18.344 17.6041 19.568 17.7241 20.504C17.5921 20.984 16.9321 22.076 15.7801 22.076C14.0761 22.076 13.8001 20.768 13.8001 20.264C13.8001 19.76 14.0761 18.344 15.7801 18.344Z" fill="black"/>
<path d="M23.3387 17.144C21.0707 17.144 20.1587 19.328 20.1587 21.596C20.1587 23.864 21.0707 26.036 23.3387 26.036C25.6067 26.036 26.5187 23.864 26.5187 21.596C26.5187 19.328 25.6067 17.144 23.3387 17.144ZM23.3387 24.836C21.6347 24.836 21.3587 22.94 21.3587 21.596C21.3587 20.252 21.6347 18.344 23.3387 18.344C25.0427 18.344 25.3187 20.252 25.3187 21.596C25.3187 22.94 25.0427 24.836 23.3387 24.836Z" fill="black"/>
<path d="M30.875 5.9375H7.125C6.46916 5.9375 5.9375 6.46916 5.9375 7.125V30.875C5.9375 31.5308 6.46916 32.0625 7.125 32.0625H30.875C31.5308 32.0625 32.0625 31.5308 32.0625 30.875V7.125C32.0625 6.46916 31.5308 5.9375 30.875 5.9375Z" stroke="black" stroke-linecap="round" stroke-linejoin="round"/>
<path d="M26.125 3.5625V8.3125" stroke="black" stroke-linecap="round" stroke-linejoin="round"/>
<path d="M11.875 3.5625V8.3125" stroke="black" stroke-linecap="round" stroke-linejoin="round"/>
<path d="M5.9375 13.0625H32.0625" stroke="black" stroke-linecap="round" stroke-linejoin="round"/>
</svg>
