<svg width="23" height="48" viewBox="0 0 23 48" fill="none" xmlns="http://www.w3.org/2000/svg">
<path fill-rule="evenodd" clip-rule="evenodd" d="M11.1515 4.52306C11.4986 4.52306 11.7799 4.80441 11.7799 5.15147C11.7799 5.49853 11.4986 5.77989 11.1515 5.77989C10.8044 5.77989 10.5231 5.49853 10.5231 5.15147C10.5231 4.80441 10.8044 4.52306 11.1515 4.52306ZM11.1515 3.75753C11.9214 3.75753 12.5454 4.38162 12.5454 5.15147C12.5454 5.92132 11.9214 6.54541 11.1515 6.54541C10.3817 6.54541 9.75757 5.92132 9.75757 5.15147C9.75757 4.38162 10.3817 3.75753 11.1515 3.75753Z" fill="black"/>
<path fill-rule="evenodd" clip-rule="evenodd" d="M19.9379 1.73525H3.0621C1.79373 1.73525 0.765524 2.76346 0.765524 4.03182V44.6046C0.765524 45.873 1.79373 46.9012 3.06209 46.9012H19.9379C21.2063 46.9012 22.2345 45.873 22.2345 44.6046V4.03182C22.2345 2.76346 21.2063 1.73525 19.9379 1.73525ZM3.0621 0.969727C1.37095 0.969727 0 2.34067 0 4.03182V44.6046C0 46.2958 1.37095 47.6667 3.06209 47.6667H19.9379C21.6291 47.6667 23 46.2958 23 44.6046V4.03182C23 2.34067 21.6291 0.969727 19.9379 0.969727H3.0621Z" fill="black"/>
</svg>
