<svg width="20" height="20" viewBox="0 0 20 20" fill="none" xmlns="http://www.w3.org/2000/svg">
<path d="M10.9613 0H2.61326C1.91967 0.00148543 1.255 0.282227 0.765072 0.78062C0.275149 1.27901 -1.54353e-06 1.95435 0 2.65844V17.3472C0 18.0507 0.275328 18.7255 0.76541 19.223C1.25549 19.7205 1.92018 20 2.61326 20H10.9613C11.6544 20 12.3191 19.7205 12.8092 19.223C13.2993 18.7255 13.5746 18.0507 13.5746 17.3472V2.65844C13.5746 1.95435 13.2994 1.27901 12.8095 0.78062C12.3196 0.282227 11.6549 0.00148543 10.9613 0ZM8.56354 1.1217V1.46943C8.56354 1.49595 8.55839 1.5222 8.5484 1.5467C8.5384 1.5712 8.52375 1.59345 8.50528 1.6122C8.48681 1.63095 8.46489 1.64582 8.44076 1.65597C8.41663 1.66611 8.39076 1.67134 8.36464 1.67134H4.8674C4.81562 1.66988 4.76643 1.64797 4.73032 1.61026C4.6942 1.57255 4.67402 1.52202 4.67404 1.46943V1.1217H8.56354ZM12.4696 17.3472C12.4696 17.7532 12.3107 18.1427 12.0278 18.4298C11.745 18.717 11.3613 18.8783 10.9613 18.8783H2.61326C2.21323 18.8783 1.82959 18.717 1.54674 18.4298C1.26388 18.1427 1.10497 17.7532 1.10497 17.3472V2.65844C1.10497 2.25185 1.26371 1.86182 1.54641 1.57379C1.82911 1.28575 2.21273 1.12319 2.61326 1.1217H3.56906V1.46943C3.56906 1.8195 3.70567 2.15533 3.949 2.40339C4.19233 2.65146 4.52255 2.79156 4.8674 2.79304H8.36464C8.53587 2.79304 8.70542 2.75881 8.86361 2.69229C9.0218 2.62577 9.16554 2.52828 9.28662 2.40537C9.40769 2.28246 9.50373 2.13655 9.56926 1.97596C9.63478 1.81537 9.66851 1.64325 9.66851 1.46943V1.1217H10.9613C11.3619 1.12319 11.7455 1.28575 12.0282 1.57379C12.3109 1.86182 12.4696 2.25185 12.4696 2.65844V17.3472Z" fill="black"/>
<path d="M6.70168 14.7226C5.78356 14.7226 4.88608 14.4462 4.12277 13.9283C3.35946 13.4103 2.76463 12.6742 2.41353 11.813C2.06244 10.9519 1.97085 10.0043 2.15037 9.09029C2.32989 8.17627 2.77244 7.33682 3.42204 6.67818C4.07163 6.01954 4.89907 5.57128 5.79967 5.39014C6.70028 5.20899 7.63358 5.30309 8.4815 5.66052C9.32941 6.01796 10.0538 6.62268 10.5631 7.39816C11.0724 8.17364 11.3437 9.08505 11.3426 10.0171C11.3411 11.2656 10.8515 12.4624 9.98132 13.3447C9.11115 14.227 7.93156 14.7226 6.70168 14.7226ZM6.70168 6.42761C6.00234 6.42761 5.31871 6.63812 4.73723 7.03254C4.15576 7.42695 3.70255 7.98755 3.43493 8.64344C3.1673 9.29933 3.09728 10.021 3.23371 10.7173C3.37015 11.4136 3.70691 12.0532 4.20141 12.5552C4.69592 13.0572 5.32596 13.399 6.01186 13.5375C6.69776 13.6761 7.40871 13.605 8.05481 13.3333C8.70092 13.0616 9.25315 12.6015 9.64168 12.0113C10.0302 11.421 10.2376 10.727 10.2376 10.0171C10.2361 9.06606 9.86294 8.1545 9.19999 7.48256C8.53704 6.81062 7.63851 6.43322 6.70168 6.43322V6.42761Z" fill="black"/>
<path d="M8.56351 18.1324H4.6961C4.54957 18.1324 4.40905 18.0734 4.30543 17.9682C4.20182 17.863 4.14362 17.7203 4.14362 17.5716C4.14362 17.4228 4.20182 17.2802 4.30543 17.175C4.40905 17.0698 4.54957 17.0107 4.6961 17.0107H8.56351C8.71003 17.0107 8.85056 17.0698 8.95417 17.175C9.05778 17.2802 9.11599 17.4228 9.11599 17.5716C9.11599 17.7203 9.05778 17.863 8.95417 17.9682C8.85056 18.0734 8.71003 18.1324 8.56351 18.1324Z" fill="black"/>
<path d="M6.07733 12.0917C6.00424 12.0914 5.93192 12.0764 5.86459 12.0475C5.79725 12.0186 5.73623 11.9765 5.68507 11.9235L4.20441 10.4148L4.98894 9.624L6.06076 10.7457L8.19336 8.37891L9.01103 9.13605L6.48065 11.9403C6.43089 11.9964 6.37051 12.0416 6.30311 12.0735C6.2357 12.1053 6.16267 12.1229 6.08839 12.1254L6.07733 12.0917Z" fill="black"/>
<path d="M19.8287 4.71116C19.9095 4.63264 19.9649 4.53109 19.9876 4.41993C20.0102 4.30878 19.9992 4.19324 19.9558 4.08861L18.3978 0.347726C18.3563 0.245303 18.286 0.157627 18.1955 0.0957461C18.1051 0.0338655 17.9986 0.00055271 17.8895 0H16.6243C16.5152 0.00055271 16.4088 0.0338655 16.3183 0.0957461C16.2279 0.157627 16.1575 0.245303 16.116 0.347726L14.558 4.06618C14.5146 4.17081 14.5036 4.28635 14.5263 4.3975C14.549 4.50866 14.6043 4.6102 14.6851 4.68873L15.7624 5.74313V12.249C15.4684 12.3241 15.2076 12.4968 15.0213 12.7397C14.8351 12.9826 14.7343 13.2817 14.7348 13.5895V17.4481C14.7348 18.119 14.9973 18.7624 15.4646 19.2367C15.9319 19.7111 16.5657 19.9776 17.2265 19.9776H17.3867C17.9729 19.9776 18.535 19.7412 18.9494 19.3205C19.3639 18.8998 19.5967 18.3291 19.5967 17.7342V13.6007C19.5968 13.3249 19.5152 13.0555 19.3625 12.8274C19.2098 12.5994 18.993 12.4232 18.7403 12.3219V5.74874L19.8287 4.71116ZM18.5028 17.7454C18.5028 18.0429 18.3864 18.3282 18.1791 18.5385C17.9719 18.7489 17.6909 18.8671 17.3978 18.8671H17.2376C16.8698 18.8671 16.5171 18.7188 16.257 18.4548C15.9969 18.1908 15.8508 17.8327 15.8508 17.4593V13.6007C15.8508 13.5332 15.8768 13.4684 15.9233 13.4202C15.9698 13.372 16.033 13.3441 16.0995 13.3427H18.232C18.2985 13.3441 18.3617 13.372 18.4082 13.4202C18.4547 13.4684 18.4807 13.5332 18.4807 13.6007L18.5028 17.7454ZM17.8177 5.12619C17.7638 5.17832 17.7209 5.24096 17.6914 5.31035C17.662 5.37974 17.6467 5.45446 17.6464 5.53001V12.2322H16.8674V5.53001C16.8671 5.45446 16.8518 5.37974 16.8224 5.31035C16.7929 5.24096 16.75 5.17832 16.6961 5.12619L15.7238 4.17274L16.989 1.12171H17.5414L18.8066 4.17274L17.8177 5.12619Z" fill="black"/>
</svg>
