<svg width="20" height="20" viewBox="0 0 20 20" fill="none" xmlns="http://www.w3.org/2000/svg">
<path fill-rule="evenodd" clip-rule="evenodd" d="M2.35 2.35V17.65H17.65V2.35H2.35ZM2.125 1C1.50368 1 1 1.50368 1 2.125V17.875C1 18.4963 1.50368 19 2.125 19H17.875C18.4963 19 19 18.4963 19 17.875V2.125C19 1.50368 18.4963 1 17.875 1H2.125ZM13.071 9.89283C13.2914 9.38469 13.375 9.0163 13.375 8.78491C13.375 6.92095 11.864 5.40991 10 5.40991C8.13604 5.40991 6.625 6.92095 6.625 8.78491C6.625 9.0163 6.70858 9.38469 6.92896 9.89283C7.14232 10.3848 7.44963 10.9307 7.81238 11.4934C8.51519 12.5835 9.37226 13.6545 10 14.3951C10.6277 13.6545 11.4848 12.5835 12.1876 11.4934C12.5504 10.9307 12.8577 10.3848 13.071 9.89283ZM10.7969 15.1947C12.0894 13.6774 14.5 10.6039 14.5 8.78491C14.5 6.29963 12.4853 4.28491 10 4.28491C7.51472 4.28491 5.5 6.29963 5.5 8.78491C5.5 10.6039 7.91055 13.6774 9.20309 15.1947C9.62613 15.6913 10.3739 15.6913 10.7969 15.1947ZM11.125 8.875C11.125 9.49632 10.6213 10 10 10C9.37868 10 8.875 9.49632 8.875 8.875C8.875 8.25368 9.37868 7.75 10 7.75C10.6213 7.75 11.125 8.25368 11.125 8.875ZM12.25 8.875C12.25 10.1176 11.2426 11.125 10 11.125C8.75736 11.125 7.75 10.1176 7.75 8.875C7.75 7.63236 8.75736 6.625 10 6.625C11.2426 6.625 12.25 7.63236 12.25 8.875Z" fill="black"/>
</svg>
