<svg width="32" height="44" viewBox="0 0 32 44" fill="none" xmlns="http://www.w3.org/2000/svg">
<path d="M10 37.75C12.0711 37.75 13.75 36.0711 13.75 34C13.75 31.9289 12.0711 30.25 10 30.25C7.92893 30.25 6.25 31.9289 6.25 34C6.25 36.0711 7.92893 37.75 10 37.75Z" stroke="black" stroke-linecap="round" stroke-linejoin="round"/>
<path d="M15.422 30.3047C15.61 30.574 15.7747 30.8589 15.9141 31.1562L17.9376 32.2812C18.1902 33.4129 18.1929 34.586 17.9454 35.7187L15.9141 36.8438C15.7747 37.1411 15.61 37.426 15.422 37.6953L15.461 40.0156C14.6035 40.7971 13.5885 41.3858 12.4845 41.7422L10.4923 40.5469C10.1646 40.5703 9.8356 40.5703 9.5079 40.5469L7.52352 41.7344C6.41595 41.3845 5.39766 40.798 4.53915 40.0156L4.57821 37.7031C4.3917 37.4301 4.22712 37.1428 4.08602 36.8438L2.06258 35.7187C1.80993 34.5871 1.80726 33.414 2.05477 32.2812L4.08602 31.1562C4.22546 30.8589 4.39013 30.574 4.57821 30.3047L4.53915 27.9844C5.39669 27.2029 6.41163 26.6142 7.51571 26.2578L9.5079 27.4531C9.8356 27.4297 10.1646 27.4297 10.4923 27.4531L12.4766 26.2656C13.5842 26.6155 14.6025 27.202 15.461 27.9844L15.422 30.3047Z" stroke="black" stroke-linecap="round" stroke-linejoin="round"/>
<path d="M23.0625 22.75L17.375 18.6875L11.6875 22.75V7.3125C11.6875 7.09701 11.7731 6.89035 11.9255 6.73798C12.0778 6.5856 12.2845 6.5 12.5 6.5H22.25C22.4655 6.5 22.6722 6.5856 22.8245 6.73798C22.9769 6.89035 23.0625 7.09701 23.0625 7.3125V22.75Z" stroke="black" stroke-linecap="round" stroke-linejoin="round"/>
<path d="M14.9375 3.25H25.5C25.7155 3.25 25.9222 3.3356 26.0745 3.48798C26.2269 3.64035 26.3125 3.84701 26.3125 4.0625V19.5" stroke="black" stroke-linecap="round" stroke-linejoin="round"/>
</svg>
