<svg width="38" height="38" viewBox="0 0 38 38" fill="none" xmlns="http://www.w3.org/2000/svg">
<path d="M12.8776 23.96C13.1176 25.016 14.1136 26.036 15.6136 26.036C17.8816 26.036 18.9616 23.852 18.9616 21.584C18.9616 19.076 18.0496 17.144 15.7816 17.144C13.5136 17.144 12.6016 18.836 12.6016 20.264C12.6016 21.692 13.5136 23.276 15.7816 23.276C16.6096 23.276 17.4256 22.652 17.7376 22.088C17.6296 23.54 17.0176 24.836 15.6136 24.836C14.7616 24.836 14.3056 24.368 14.1376 23.96H12.8776ZM15.7816 18.344C17.1616 18.344 17.6056 19.568 17.7256 20.504C17.5936 20.984 16.9336 22.076 15.7816 22.076C14.0776 22.076 13.8016 20.768 13.8016 20.264C13.8016 19.76 14.0776 18.344 15.7816 18.344Z" fill="black"/>
<path d="M23.3402 17.144C21.0722 17.144 20.1602 19.328 20.1602 21.596C20.1602 23.864 21.0722 26.036 23.3402 26.036C25.6082 26.036 26.5202 23.864 26.5202 21.596C26.5202 19.328 25.6082 17.144 23.3402 17.144ZM23.3402 24.836C21.6362 24.836 21.3602 22.94 21.3602 21.596C21.3602 20.252 21.6362 18.344 23.3402 18.344C25.0442 18.344 25.3202 20.252 25.3202 21.596C25.3202 22.94 25.0442 24.836 23.3402 24.836Z" fill="black"/>
<path d="M30.875 5.9375H7.125C6.46916 5.9375 5.9375 6.46916 5.9375 7.125V30.875C5.9375 31.5308 6.46916 32.0625 7.125 32.0625H30.875C31.5308 32.0625 32.0625 31.5308 32.0625 30.875V7.125C32.0625 6.46916 31.5308 5.9375 30.875 5.9375Z" stroke="black" stroke-linecap="round" stroke-linejoin="round"/>
<path d="M26.125 3.5625V8.3125" stroke="black" stroke-linecap="round" stroke-linejoin="round"/>
<path d="M11.875 3.5625V8.3125" stroke="black" stroke-linecap="round" stroke-linejoin="round"/>
<path d="M5.9375 13.0625H32.0625" stroke="black" stroke-linecap="round" stroke-linejoin="round"/>
</svg>
