<svg width="110" height="110" viewBox="0 0 110 110" fill="none" xmlns="http://www.w3.org/2000/svg">
<g clip-path="url(#clip0_160_992)">
<path d="M55.127 60.7898H54.7812L54.595 60.6772C54.5484 60.6375 50.0324 56.7884 48.3696 55.4104C46.5805 53.9198 45.8555 50.3489 45.8223 50.2032V42.0214L54.8809 38L55.1403 38.0663L64.0394 42.0412V50.223C64.0394 50.3688 63.2812 53.9396 61.4921 55.4303C59.8293 56.8082 55.3133 60.6573 55.2667 60.6971L55.127 60.7898ZM46.7468 50.064C46.8332 50.4549 47.5249 53.4958 48.9682 54.7015C50.4115 55.9072 53.9166 58.8885 54.9541 59.7431C55.9651 58.8885 59.4835 55.894 60.94 54.7015C62.3966 53.509 63.075 50.4615 63.1615 50.064V42.6242L54.9874 38.9937L46.8066 42.6242L46.7468 50.064Z" fill="black"/>
<path d="M53.9169 50.5277C53.8037 50.5269 53.6947 50.4844 53.611 50.4084L51.1767 48.2686C51.0841 48.1869 51.0279 48.0719 51.0204 47.9489C51.0129 47.8259 51.0548 47.7049 51.1368 47.6127C51.2188 47.5204 51.3343 47.4644 51.4578 47.457C51.5812 47.4495 51.7026 47.4912 51.7953 47.5729L53.9036 49.4279L57.8942 45.5391C57.9371 45.4942 57.9887 45.4584 58.0459 45.434C58.103 45.4096 58.1646 45.397 58.2268 45.397C58.289 45.397 58.3506 45.4096 58.4077 45.434C58.4649 45.4584 58.5165 45.4942 58.5593 45.5391C58.6471 45.6272 58.6963 45.7462 58.6963 45.8703C58.6963 45.9944 58.6471 46.1135 58.5593 46.2016L54.2428 50.3753C54.2014 50.421 54.1512 50.458 54.0953 50.4841C54.0393 50.5103 53.9787 50.5251 53.9169 50.5277Z" fill="black"/>
<path d="M52.4664 68.7663C52.8081 67.7634 52.9438 66.7022 52.8654 65.6459C52.6991 63.6585 50.6772 61.0946 48.6753 60.8561L45.5493 56.6162C45.2022 56.251 44.7387 56.0171 44.2378 55.9542C43.7369 55.8914 43.2296 56.0036 42.8024 56.2716L42.5896 56.424V51.2102C42.5281 50.6521 42.2709 50.1335 41.8634 49.7458C41.4558 49.358 40.924 49.1258 40.3615 49.0902C38.8185 49.0041 38.1534 50.4152 38.0137 51.1903C38.0137 51.1903 38.0137 51.2499 38.0137 51.2764V60.6044C38.0127 60.6946 38.0407 60.7828 38.0935 60.8561L43.3678 68.8061C43.2272 68.9123 43.1132 69.0496 43.0348 69.207C42.9563 69.3645 42.9155 69.5379 42.9155 69.7137V72.8208C42.9155 73.1265 43.0374 73.4197 43.2545 73.6359C43.4715 73.8521 43.7658 73.9735 44.0728 73.9735H51.8545C52.1614 73.9735 52.4558 73.8521 52.6728 73.6359C52.8898 73.4197 53.0117 73.1265 53.0117 72.8208V69.7137C53.0083 69.5228 52.9566 69.3358 52.8612 69.1702C52.7659 69.0046 52.63 68.8657 52.4664 68.7663ZM38.9315 60.4652V51.3228C38.9847 51.0976 39.2574 49.9978 40.3283 49.9978C40.6604 50.0263 40.973 50.1663 41.2147 50.3951C41.4564 50.6238 41.6129 50.9276 41.6585 51.2565V58.1598C41.6598 58.2527 41.69 58.343 41.7449 58.4181L42.0309 58.8421L45.5493 63.9632C45.5846 64.0152 45.63 64.0595 45.6828 64.0937C45.7355 64.1279 45.7947 64.1513 45.8566 64.1624C45.9186 64.1735 45.9822 64.1722 46.0436 64.1584C46.1051 64.1447 46.1631 64.1189 46.2144 64.0825C46.268 64.0486 46.314 64.004 46.3495 63.9515C46.3849 63.8989 46.409 63.8397 46.4203 63.7774C46.4316 63.7151 46.4297 63.6512 46.4149 63.5897C46.4 63.5282 46.3725 63.4704 46.3341 63.42L42.8423 58.3453C42.7578 58.1032 42.7593 57.8395 42.8465 57.5984C42.9336 57.3572 43.1012 57.1532 43.3212 57.0203C43.5638 56.8732 43.8494 56.8127 44.1311 56.8488C44.4127 56.885 44.6736 57.0155 44.8709 57.219L48.0567 61.5517C48.098 61.6083 48.152 61.6545 48.2143 61.6867C48.2767 61.7189 48.3457 61.7362 48.4159 61.7372C49.8858 61.777 51.7946 63.9235 51.9476 65.7122C52.0077 66.6832 51.872 67.6563 51.5485 68.5742H44.3122L38.9315 60.4652ZM52.0806 72.8473C52.0789 72.9065 52.0546 72.9628 52.0125 73.0047C51.9705 73.0466 51.9139 73.0709 51.8545 73.0725H44.0595C43.9995 73.0725 43.942 73.0488 43.8996 73.0066C43.8572 72.9643 43.8333 72.907 43.8333 72.8473V69.7402C43.8333 69.6804 43.8572 69.6231 43.8996 69.5809C43.942 69.5387 43.9995 69.5149 44.0595 69.5149H51.8545C51.9144 69.5149 51.972 69.5387 52.0144 69.5809C52.0568 69.6231 52.0806 69.6804 52.0806 69.7402V72.8473Z" fill="black"/>
<path d="M71.9941 51.1902C71.8611 50.4549 71.2093 49.0835 69.7261 49.0835H69.653C69.0794 49.1211 68.5385 49.3625 68.1284 49.7636C67.7183 50.1648 67.4664 50.6992 67.4182 51.2697V56.4173C67.3512 56.3613 67.2801 56.3104 67.2054 56.265C66.7678 55.9953 66.249 55.8874 65.7396 55.96C65.2302 56.0327 64.7627 56.2813 64.4186 56.6624L61.3392 60.8494C59.3439 61.0945 57.3087 63.665 57.1424 65.6393C57.0702 66.6953 57.2058 67.7553 57.5415 68.7596C57.3749 68.8623 57.2373 69.0056 57.1419 69.176C57.0464 69.3465 56.9962 69.5383 56.9961 69.7335V72.8406C56.9961 73.1463 57.118 73.4395 57.3351 73.6557C57.5521 73.8719 57.8464 73.9933 58.1534 73.9933H65.9417C66.2486 73.9933 66.543 73.8719 66.76 73.6557C66.9771 73.4395 67.099 73.1463 67.099 72.8406V69.7335C67.099 69.5577 67.0582 69.3843 66.9797 69.2269C66.9012 69.0694 66.7873 68.9322 66.6467 68.8259L71.9276 60.8759C71.9758 60.8008 72.0012 60.7134 72.0008 60.6242V51.2764C72.0016 51.2475 71.9994 51.2186 71.9941 51.1902ZM66.1678 72.8472C66.1678 72.907 66.144 72.9643 66.1016 73.0065C66.0592 73.0487 66.0017 73.0725 65.9417 73.0725H58.1534C58.1237 73.0725 58.0943 73.0666 58.0668 73.0553C58.0394 73.044 58.0145 73.0274 57.9935 73.0065C57.9725 72.9856 57.9558 72.9607 57.9444 72.9334C57.9331 72.9061 57.9272 72.8768 57.9272 72.8472V69.7401C57.9272 69.7105 57.9331 69.6812 57.9444 69.6539C57.9558 69.6266 57.9725 69.6018 57.9935 69.5808C58.0145 69.5599 58.0394 69.5433 58.0668 69.532C58.0943 69.5207 58.1237 69.5149 58.1534 69.5149H65.9417C66.0017 69.5149 66.0592 69.5386 66.1016 69.5808C66.144 69.6231 66.1678 69.6804 66.1678 69.7401V72.8472ZM71.0896 60.4652L65.7156 68.5874H58.4527C58.1225 67.6711 57.9866 66.6966 58.0536 65.7254C58.1999 63.9499 60.1154 61.8034 61.5786 61.7504C61.6498 61.7494 61.7198 61.7321 61.7832 61.7C61.8466 61.6678 61.9018 61.6216 61.9445 61.5649L65.1303 57.2322C65.3275 57.0287 65.5885 56.8982 65.8701 56.862C66.1518 56.8259 66.4374 56.8864 66.68 57.0334C66.8991 57.1672 67.0659 57.3713 67.153 57.6122C67.24 57.853 67.2421 58.1162 67.1588 58.3584L63.6671 63.4331C63.6091 63.5342 63.5914 63.6532 63.6174 63.7666C63.6435 63.8801 63.7114 63.9796 63.8077 64.0455C63.904 64.1114 64.0216 64.1388 64.1372 64.1223C64.2529 64.1058 64.3581 64.0467 64.4319 63.9565L67.957 58.8354L68.2496 58.4114C68.3025 58.3357 68.3304 58.2454 68.3294 58.1531V51.3426C68.3294 51.2896 68.5223 50.0507 69.6596 50.0176H69.6995C70.6972 50.0176 71.0297 51.1107 71.0297 51.3426L71.0896 60.4652Z" fill="black"/>
</g>
<circle cx="55" cy="55" r="54.5" stroke="black"/>
<defs>
<clipPath id="clip0_160_992">
<rect width="34" height="36" fill="white" transform="translate(38 38)"/>
</clipPath>
</defs>
</svg>
