<svg width="110" height="110" viewBox="0 0 110 110" fill="none" xmlns="http://www.w3.org/2000/svg">
<g clip-path="url(#clip0_160_955)">
<path fill-rule="evenodd" clip-rule="evenodd" d="M46.679 50.9487C46.2539 50.9487 45.8384 50.8223 45.485 50.5854C45.1317 50.3485 44.8564 50.0119 44.6941 49.6181C44.5317 49.2244 44.4896 48.7911 44.573 48.3733C44.6565 47.9555 44.8617 47.572 45.1627 47.2712C45.4638 46.9704 45.8471 46.7659 46.2642 46.6836C46.6813 46.6013 47.1133 46.6449 47.5056 46.8089C47.898 46.9729 48.2329 47.25 48.4681 47.6049C48.7032 47.9598 48.828 48.3767 48.8267 48.8028C48.8248 49.3726 48.5978 49.9184 48.1952 50.3206C47.7926 50.7228 47.2474 50.9487 46.679 50.9487ZM46.679 48.0275C46.4757 48.0275 46.2807 48.1085 46.1369 48.2526C45.9932 48.3967 45.9124 48.5921 45.9124 48.7959C45.9124 48.9997 45.9932 49.1951 46.1369 49.3392C46.2807 49.4833 46.4757 49.5643 46.679 49.5643C46.8823 49.5643 47.0772 49.4833 47.221 49.3392C47.3647 49.1951 47.4455 48.9997 47.4455 48.7959C47.4455 48.5921 47.3647 48.3967 47.221 48.2526C47.0772 48.1085 46.8823 48.0275 46.679 48.0275Z" fill="black"/>
<path fill-rule="evenodd" clip-rule="evenodd" d="M45.4858 56.4287C45.839 56.6652 46.2542 56.7915 46.679 56.7915C47.248 56.7897 47.7932 56.5623 48.1956 56.1589C48.598 55.7556 48.8249 55.2091 48.8267 54.6387C48.8267 54.2129 48.7007 53.7966 48.4647 53.4426C48.2287 53.0886 47.8933 52.8127 47.5009 52.6497C47.1084 52.4868 46.6766 52.4441 46.26 52.5272C45.8434 52.6103 45.4607 52.8153 45.1603 53.1164C44.8599 53.4175 44.6554 53.8011 44.5725 54.2187C44.4896 54.6363 44.5322 55.0691 44.6947 55.4625C44.8573 55.8559 45.1326 56.1921 45.4858 56.4287ZM46.2531 53.9998C46.3792 53.9154 46.5274 53.8703 46.679 53.8703C46.8823 53.8703 47.0772 53.9512 47.221 54.0953C47.3648 54.2394 47.4455 54.4349 47.4455 54.6387C47.4455 54.7906 47.4006 54.9392 47.3163 55.0656C47.2321 55.1919 47.1124 55.2904 46.9723 55.3485C46.8322 55.4067 46.6781 55.4219 46.5294 55.3923C46.3807 55.3626 46.2441 55.2894 46.1369 55.182C46.0297 55.0745 45.9567 54.9376 45.9271 54.7886C45.8976 54.6395 45.9128 54.485 45.9708 54.3446C46.0288 54.2042 46.127 54.0842 46.2531 53.9998Z" fill="black"/>
<path fill-rule="evenodd" clip-rule="evenodd" d="M46.6788 62.5781C46.2552 62.5781 45.8411 62.4525 45.4885 62.2171C45.1359 61.9818 44.8607 61.6472 44.6973 61.2554C44.534 60.8636 44.4899 60.4322 44.5705 60.0154C44.6512 59.5985 44.853 59.2149 45.1506 58.9128C45.4482 58.6106 45.8283 58.4034 46.2431 58.3173C46.6579 58.2311 47.0888 58.2698 47.4817 58.4285C47.8746 58.5872 48.2119 58.8588 48.4512 59.2092C48.6905 59.5595 48.8211 59.973 48.8265 60.3976C48.8292 60.6824 48.7758 60.9649 48.6691 61.2289C48.5625 61.4928 48.4049 61.7331 48.2052 61.9357C48.0056 62.1384 47.768 62.2995 47.506 62.4097C47.244 62.52 46.9629 62.5772 46.6788 62.5781ZM46.6788 59.6569C46.526 59.657 46.3768 59.7029 46.2502 59.7886C46.1236 59.8743 46.0255 59.996 45.9683 60.138C45.9112 60.28 45.8977 60.4359 45.9296 60.5857C45.9615 60.7354 46.0373 60.8722 46.1473 60.9785C46.2573 61.0847 46.3964 61.1557 46.5469 61.1821C46.6974 61.2086 46.8523 61.1893 46.9918 61.1269C47.1313 61.0645 47.249 60.9617 47.3298 60.8318C47.4106 60.7018 47.4508 60.5506 47.4453 60.3976C47.4382 60.1986 47.3543 60.0102 47.2113 59.8721C47.0683 59.7339 46.8774 59.6568 46.6788 59.6569Z" fill="black"/>
<path d="M51.0441 55.3029H59.6557C59.8388 55.3029 60.0145 55.23 60.144 55.1002C60.2735 54.9703 60.3463 54.7943 60.3463 54.6107C60.3463 54.4271 60.2735 54.251 60.144 54.1212C60.0145 53.9914 59.8388 53.9185 59.6557 53.9185H51.0441C50.8609 53.9185 50.6853 53.9914 50.5558 54.1212C50.4263 54.251 50.3535 54.4271 50.3535 54.6107C50.3535 54.7943 50.4263 54.9703 50.5558 55.1002C50.6853 55.23 50.8609 55.3029 51.0441 55.3029Z" fill="black"/>
<path d="M59.6557 61.09H51.0441C50.8609 61.09 50.6853 61.0171 50.5558 60.8873C50.4263 60.7574 50.3535 60.5814 50.3535 60.3978C50.3535 60.2142 50.4263 60.0381 50.5558 59.9083C50.6853 59.7785 50.8609 59.7056 51.0441 59.7056H59.6557C59.8388 59.7056 60.0145 59.7785 60.144 59.9083C60.2735 60.0381 60.3463 60.2142 60.3463 60.3978C60.3463 60.5814 60.2735 60.7574 60.144 60.8873C60.0145 61.0171 59.8388 61.09 59.6557 61.09Z" fill="black"/>
<path d="M62.9549 47.7559C62.9895 47.8265 63.0393 47.8886 63.1007 47.9376C63.6936 48.4754 64.4352 48.8206 65.2277 48.9275V49.6197C65.2277 49.7593 65.283 49.8931 65.3814 49.9917C65.4798 50.0904 65.6133 50.1458 65.7525 50.1458C65.8917 50.1458 66.0252 50.0904 66.1236 49.9917C66.222 49.8931 66.2773 49.7593 66.2773 49.6197V48.9275C66.9012 48.8877 67.4874 48.6145 67.9197 48.1619C68.352 47.7093 68.5989 47.1104 68.6115 46.484C68.6115 44.7864 67.3018 44.2542 66.0972 43.7648C65.0719 43.3481 64.1227 42.9625 64.1227 41.9153C64.1227 41.0707 64.7373 40.5308 65.8423 40.5308C66.3611 40.5167 66.8741 40.6435 67.327 40.8977C67.4309 40.9547 67.547 40.9856 67.6654 40.9877C67.7453 40.9901 67.8244 40.9723 67.8956 40.936C67.9668 40.8997 68.0278 40.8461 68.0729 40.78C68.1328 40.6891 68.1685 40.5842 68.1765 40.4754C68.1712 40.3728 68.1382 40.2735 68.0811 40.1881C68.0239 40.1028 67.9447 40.0346 67.8519 39.9909C67.3658 39.7227 66.8298 39.5578 66.2773 39.5063V38.9387C66.2773 38.7992 66.222 38.6653 66.1236 38.5667C66.0252 38.468 65.8917 38.4126 65.7525 38.4126C65.6133 38.4126 65.4798 38.468 65.3814 38.5667C65.283 38.6653 65.2277 38.7992 65.2277 38.9387V39.5063C64.6202 39.5425 64.0483 39.8058 63.6251 40.2441C63.2019 40.6824 62.958 41.2639 62.9418 41.8737C62.9418 43.5175 64.2433 44.0674 65.4447 44.5751C66.4744 45.0102 67.4306 45.4142 67.4306 46.4493C67.4306 47.3839 66.6572 47.8892 65.6973 47.8892C65.0024 47.8462 64.3395 47.5818 63.8051 47.1346C63.6978 47.0458 63.5643 46.9947 63.4252 46.9893C63.3456 46.9922 63.2677 47.013 63.1971 47.0501C63.1266 47.0872 63.0653 47.1398 63.0178 47.2039C62.9458 47.2974 62.9048 47.4112 62.9004 47.5292C62.9016 47.6079 62.9202 47.6853 62.9549 47.7559Z" fill="black"/>
<path fill-rule="evenodd" clip-rule="evenodd" d="M65.7595 35.0002C63.8674 35.0028 62.0214 35.5859 60.4695 36.6712C58.9177 37.7564 57.7345 39.2918 57.0789 41.071H41.7894C41.2271 41.071 40.6878 41.2949 40.2902 41.6934C39.8926 42.092 39.6693 42.6325 39.6693 43.1961V64.8213H34.8352C34.6716 64.8186 34.5125 64.8742 34.386 64.9781C34.2596 65.0821 34.174 65.2276 34.1446 65.3889C34.1446 65.4036 34.1388 65.4477 34.1296 65.5176C34.0351 66.2376 33.5811 69.696 35.3876 71.9927C35.9117 72.6276 36.5704 73.1373 37.3159 73.4846C38.0614 73.8318 38.8748 74.008 39.6969 74.0002H60.2832C61.6374 74.0002 62.9361 73.4614 63.8943 72.5023C64.8525 71.5431 65.3917 70.242 65.3935 68.8846V53.5172C65.5154 53.5241 65.6376 53.5241 65.7595 53.5172C68.1673 53.4512 70.4544 52.4461 72.1342 50.7157C73.8139 48.9853 74.7538 46.6662 74.7538 44.2518C74.7538 41.8373 73.8139 39.5182 72.1342 37.7878C70.4544 36.0574 68.1673 35.0523 65.7595 34.9863V35.0002ZM39.7314 72.6157C39.1099 72.6282 38.4934 72.5025 37.9262 72.2475C37.359 71.9926 36.8552 71.6148 36.4511 71.1413C35.2495 69.6114 35.3048 67.2717 35.4084 66.2057H54.6066C54.4961 67.5209 54.4892 70.1375 55.9878 71.9927C56.1631 72.2166 56.3571 72.425 56.5679 72.6157H39.7314ZM64.0124 68.8846C64.0106 69.8688 63.6216 70.8126 62.9299 71.5112C62.2382 72.2097 61.2996 72.6066 60.3177 72.6157C59.6997 72.6251 59.0872 72.4979 58.5238 72.2431C57.9604 71.9882 57.46 71.612 57.0582 71.1413C55.4629 69.12 56.0845 65.6796 56.0914 65.645C56.1109 65.5437 56.1077 65.4394 56.0818 65.3396C56.056 65.2398 56.0083 65.147 55.9421 65.068C55.8759 64.9891 55.7929 64.9259 55.6993 64.8832C55.6056 64.8405 55.5036 64.8194 55.4008 64.8213H41.0504V43.1961C41.0504 42.9997 41.1283 42.8113 41.2669 42.6724C41.4054 42.5335 41.5934 42.4554 41.7894 42.4554H56.6922C56.3214 44.3664 56.5631 46.346 57.3828 48.1109H51.0777C50.8946 48.1109 50.7189 48.1839 50.5894 48.3137C50.4599 48.4435 50.3871 48.6196 50.3871 48.8031C50.3871 48.9867 50.4599 49.1628 50.5894 49.2926C50.7189 49.4224 50.8946 49.4954 51.0777 49.4954H58.1355C59.5113 51.509 61.6224 52.899 64.0124 53.3649V68.8846ZM65.7595 52.1466H65.3935C64.9282 52.1243 64.4659 52.0594 64.0124 51.9528C62.9996 51.7245 62.0421 51.2969 61.1955 50.6947C60.3489 50.0925 59.6301 49.3278 59.0808 48.4449C58.5315 47.5619 58.1626 46.5784 57.9956 45.5515C57.8286 44.5245 57.8667 43.4744 58.1079 42.4624C58.2164 41.9859 58.3737 41.5219 58.5775 41.0779C59.1518 39.782 60.0645 38.6655 61.2192 37.8462C62.3739 37.0269 63.7278 36.5353 65.138 36.4231C66.5483 36.311 67.9626 36.5825 69.2318 37.209C70.5009 37.8356 71.5778 38.7939 72.3487 39.9828C73.1197 41.1718 73.5563 42.5473 73.6122 43.9643C73.6682 45.3812 73.3416 46.787 72.6668 48.0334C71.992 49.2797 70.9941 50.3204 69.7784 51.0456C68.5627 51.7707 67.1742 52.1535 65.7595 52.1535V52.1466Z" fill="black"/>
</g>
<circle cx="55" cy="55" r="54.5" stroke="black"/>
<defs>
<clipPath id="clip0_160_955">
<rect width="41" height="39" fill="white" transform="translate(34 35)"/>
</clipPath>
</defs>
</svg>
