<svg width="24" height="24" viewBox="0 0 24 24" fill="none" xmlns="http://www.w3.org/2000/svg">
<path fill-rule="evenodd" clip-rule="evenodd" d="M10.1464 3.56066C10.3417 3.3654 10.6583 3.3654 10.8536 3.56066L13.3054 6.01251C12.5689 6.10792 12 6.73752 12 7.5V9H11.9832H11.9425H11.9019H11.8612H11.8205H11.7797H11.739H11.6982H11.6574H11.6165H11.5757H11.5348H11.4939H11.453H11.4121H11.3711H11.3301H11.2892H11.2481H11.2071H11.1661H11.125H11.0839H11.0429H11.0018H10.9606H10.9195H10.8784H10.8372H10.7961H10.7549H10.7137H10.6726H10.6314H10.5902H10.5489H10.5077H10.4665H10.4253H10.3841H10.3428H10.3016H10.2603H10.2191H10.1779H10.1366H10.0954H10.0541H10.0129H9.97164H9.9304H9.88916H9.84793H9.8067H9.76547H9.72425H9.68304H9.64183H9.60063H9.55944H9.51825H9.47708H9.43591H9.39476H9.35361H9.31248H9.27135H9.23025H9.18915H9.14807H9.107H9.06594H9.02491H8.98389H8.94288H8.90189H8.86092H8.81997H8.77904H8.73813H8.69724H8.65637H8.61552H8.57469H8.53389H8.49311H8.45235H8.41162H8.37092H8.33024H8.28958H8.24896H8.20836H8.16779H8.12725H8.08673H8.04625H8.0058H7.96538H7.92499H7.88464H7.84432H7.80403H7.76378H7.72356H7.68337H7.64323H7.60312H7.56305H7.52301H7.48302H7.44306H7.40314H7.36327H7.32343H7.28364H7.24389H7.20418H7.16451H7.12489H7.08532H7.04579H7.0063H6.96687H6.92747H6.88813H6.84884H6.80959H6.7704H6.73125H6.69216H6.65311H6.61412H6.57518H6.5363H6.49747H6.45869H6.41997H6.3813H6.34269H6.30414H6.26564H6.2272H6.18882H6.1505H6.11225H6.07405H6.03591H5.99783H5.95982H5.92187H5.88398H5.84616H5.8084H5.77071H5.73308H5.70711L5.56066 8.85355C5.3654 8.65829 5.3654 8.34171 5.56066 8.14645L10.1464 3.56066ZM4.49963 9C4.31354 8.47234 4.43151 7.86138 4.85355 7.43934L9.43934 2.85355C10.0251 2.26777 10.9749 2.26777 11.5607 2.85355L14.7071 6H18.5C19.3284 6 20 6.67157 20 7.5V9H20.0032H20.0132H20.023H20.0325H20.0419H20.051H20.06H20.0688H20.0773H20.0857H20.0939H20.1019H20.1096H20.1172H20.1246H20.1317H20.1387H20.1454H20.152H20.1583H20.1644H20.1704H20.1761H20.1816H20.1869H20.192H20.1969H20.2016H20.206H20.2103H20.2143H20.2181H20.2218H20.2252H20.2283H20.2313H20.2341H20.2366H20.2389H20.241H20.2429H20.2445H20.246H20.2472H20.2482H20.2496C20.2496 9 20.25 9 20.25 9.5C20.25 10 20.25 10 20.2499 10H20.2482H20.2472H20.246H20.2445H20.2429H20.241H20.2389H20.2366H20.2341H20.2313H20.2283H20.2252H20.2218H20.2181H20.2143H20.2103H20.206H20.2016H20.1969H20.192H20.1869H20.1816H20.1761H20.1704H20.1644H20.1583H20.152H20.1454H20.1387H20.1317H20.1246H20.1172H20.1096H20.1019H20.0939H20.0857H20.0773H20.0688H20.06H20.051H20.0419H20.0325H20.023H20.0132H20.0032H19.9931H19.9828H19.9722H19.9615H19.9506H19.9395H19.9282H19.9167H19.905H19.8931H19.8811H19.8688H19.8564H19.8438H19.831H19.818H19.8048H19.7914H19.7779H19.7642H19.7502H19.7361H19.7219H19.7074H19.6928H19.678H19.663H19.6478H19.6324H19.6169H19.6012H19.5853H19.5693H19.553H19.5366H19.5201H19.5033H19.4864H19.4693H19.452H19.4346H19.417H19.3992H19.3813H19.3631H19.3449H19.3264H19.3078H19.289H19.2701H19.251H19.2317H19.2123H19.1927H19.1729H19.153H19.1329H19.1127H19.0923H19.0717H19.051H19.0301H19.0091H18.9879H18.9666H18.9451H18.9234H18.9016H18.8796H18.8575H18.8353H18.8128H18.7903H18.7675H18.7447H18.7217H18.6985H18.6752H18.6517H18.6281H18.6043H18.5804H18.5564H18.5322H18.5079H18.4834H18.4588H18.434H18.4091H18.3841H18.3589H18.3336H18.3081H18.2825H18.2568H18.2309H18.2049H18.1787H18.1525H18.126H18.0995H18.0728H18.046H18.019H17.992H17.9648H17.9374H17.9099H17.8823H17.8546H17.8268H17.7988H17.7707H17.7424H17.7141H17.6856H17.657H17.6282H17.5994H17.5704H17.5413H17.5121H17.4827H17.4533H17.4237H17.394H17.3642H17.3342H17.3042H17.274H17.2437H17.2133H17.1828H17.1522H17.1214H17.0906H17.0596H17.0285H16.9973H16.966H16.9346H16.9031H16.8715H16.8397H16.8079H16.7759H16.7439H16.7117H16.6795H16.6471H16.6146H16.582H16.5494H16.5166H16.4837H16.4507H16.4176H16.3845H16.3512H16.3178H16.2843H16.2508H16.2171H16.1833H16.1495H16.1155H16.0815H16.0473H16.0131H15.9788H15.9444H15.9098H15.8752H15.8406H15.8058H15.7709H15.736H15.7009H15.6658H15.6306H15.5953H15.5599H15.5244H15.4889H15.4533H15.4175H15.3817H15.3459H15.3099H15.2739H15.2378H15.2016H15.1653H15.1289H15.0925H15.056H15.0194H14.9828H14.946H14.9092H14.8724H14.8354H14.7984H14.7613H14.7241H14.6869H14.6496H14.6122H14.5748H14.5373H14.4997H14.4621H14.4243H14.3866H14.3487H14.3108H14.2729H14.2348H14.1968H14.1586H14.1204H14.0821H14.0438H14.0054H13.9669H13.9284H13.8899H13.8512H13.8126H13.7738H13.735H13.6962H13.6573H13.6184H13.5794H13.5403H13.5012H13.462H13.4228H13.3836H13.3443H13.3049H13.2655H13.2261H13.1866H13.147H13.1074H13.0678H13.0281H12.9884H12.9487H12.9089H12.869H12.8291H12.7892H12.7492H12.7092H12.6692H12.6291H12.589H12.5488H12.5086H12.4684H12.4282H12.3879H12.3475H12.3072H12.2668H12.2264H12.1859H12.1454H12.1049H12.0643H12.0238H11.9832H11.9425H11.9019H11.8612H11.8205H11.7797H11.739H11.6982H11.6574H11.6165H11.5757H11.5348H11.4939H11.453H11.4121H11.3711H11.3301H11.2892H11.2481H11.2071H11.1661H11.125H11.0839H11.0429H11.0018H10.9606H10.9195H10.8784H10.8372H10.7961H10.7549H10.7137H10.6726H10.6314H10.5902H10.5489H10.5077H10.4665H10.4253H10.3841H10.3428H10.3016H10.2603H10.2191H10.1779H10.1366H10.0954H10.0541H10.0129H9.97164H9.9304H9.88916H9.84793H9.8067H9.76547H9.72425H9.68304H9.64183H9.60063H9.55944H9.51825H9.47708H9.43591H9.39476H9.35361H9.31248H9.27135H9.23025H9.18915H9.14807H9.107H9.06594H9.02491H8.98389H8.94288H8.90189H8.86092H8.81997H8.77904H8.73813H8.69724H8.65637H8.61552H8.57469H8.53389H8.49311H8.45235H8.41162H8.37092H8.33024H8.28958H8.24896H8.20836H8.16779H8.12725H8.08673H8.04625H8.0058H7.96538H7.92499H7.88464H7.84432H7.80403H7.76378H7.72356H7.68337H7.64323H7.60312H7.56305H7.52301H7.48302H7.44306H7.40314H7.36327H7.32343H7.28364H7.24389H7.20418H7.16451H7.12489H7.08532H7.04579H7.0063H6.96687H6.92747H6.88813H6.84884H6.80959H6.7704H6.73125H6.69216H6.65311H6.61412H6.57518H6.5363H6.49747H6.45869H6.41997H6.3813H6.34269H6.30414H6.26564H6.2272H6.18882H6.1505H6.11225H6.07405H6.03591H5.99783H5.95982H5.92187H5.88398H5.84616H5.8084H5.77071H5.73308H5.69552H5.65803H5.6206H5.58325H5.54596H5.50874H5.47159H5.43452H5.39751H5.36058H5.32372H5.28693H5.25022H5.21358H5.17701H5.14053H5.10411H5.06778H5.03152H4.99534H4.95924H4.92322H4.88728H4.85142H4.81564H4.77995H4.74433H4.7088H4.67335H4.63799H4.60271H4.56752H4.53241H4.49739C4.36168 10 4.25015 10.1095 4.25 10.2497C4.25318 12.3492 4.25318 15.0368 4.25239 17.1995C4.25199 18.2809 4.25139 19.2312 4.25089 19.911L4.25026 20.7107L4.25007 20.9259L4.25002 20.9815L4.25 20.9957L4.25 20.9993C4.25 21.2645 4.35536 21.5196 4.54289 21.7071C4.73043 21.8946 4.98478 22 5.25 22H20.25C20.3163 22 20.3799 21.9737 20.4268 21.9268C20.4737 21.8799 20.5 21.8163 20.5 21.75V19H15.5C14.6716 19 14 18.3284 14 17.5V15.5C14 14.6716 14.6716 14 15.5 14H20.5V10.25C20.5 10.1837 20.4737 10.1201 20.4268 10.0732C20.3799 10.0263 20.3162 10 20.2499 10L20.25 9.5L20.2496 9C20.5811 9 20.8995 9.1317 21.1339 9.36612C21.3683 9.60054 21.5 9.91848 21.5 10.25V14V14.5V18.5V19V21.75C21.5 22.0815 21.3683 22.3995 21.1339 22.6339C20.8995 22.8683 20.5815 23 20.25 23H5.25C4.71957 23 4.21086 22.7893 3.83579 22.4142C3.46071 22.0391 3.25 21.5304 3.25 21V20.9983L3.25 20.9948L3.25002 20.9806L3.25007 20.9249L3.25026 20.7098L3.25089 19.9103C3.25139 19.2305 3.25199 18.2804 3.25239 17.1991C3.25318 15.0364 3.25318 12.3493 3.25 10.2508C3.25 9.56267 3.80478 9 4.49739 9H4.49963ZM15.5 15H20.5V18H15.5C15.2239 18 15 17.7761 15 17.5V15.5C15 15.2239 15.2239 15 15.5 15ZM19 9V7.5C19 7.22386 18.7761 7 18.5 7H14.5H13.5C13.2239 7 13 7.22386 13 7.5V9H13.0281H13.0678H13.1074H13.147H13.1866H13.2261H13.2655H13.3049H13.3443H13.3836H13.4228H13.462H13.5012H13.5403H13.5794H13.6184H13.6573H13.6962H13.735H13.7738H13.8126H13.8512H13.8899H13.9284H13.9669H14.0054H14.0438H14.0821H14.1204H14.1586H14.1968H14.2348H14.2729H14.3108H14.3487H14.3866H14.4243H14.4621H14.4997H14.5373H14.5748H14.6122H14.6496H14.6869H14.7241H14.7613H14.7984H14.8354H14.8724H14.9092H14.946H14.9828H15.0194H15.056H15.0925H15.1289H15.1653H15.2016H15.2378H15.2739H15.3099H15.3459H15.3817H15.4175H15.4533H15.4889H15.5244H15.5599H15.5953H15.6306H15.6658H15.7009H15.736H15.7709H15.8058H15.8406H15.8752H15.9098H15.9444H15.9788H16.0131H16.0473H16.0815H16.1155H16.1495H16.1833H16.2171H16.2508H16.2843H16.3178H16.3512H16.3845H16.4176H16.4507H16.4837H16.5166H16.5494H16.582H16.6146H16.6471H16.6795H16.7117H16.7439H16.7759H16.8079H16.8397H16.8715H16.9031H16.9346H16.966H16.9973H17.0285H17.0596H17.0906H17.1214H17.1522H17.1828H17.2133H17.2437H17.274H17.3042H17.3342H17.3642H17.394H17.4237H17.4533H17.4827H17.5121H17.5413H17.5704H17.5994H17.6282H17.657H17.6856H17.7141H17.7424H17.7707H17.7988H17.8268H17.8546H17.8823H17.9099H17.9374H17.9648H17.992H18.019H18.046H18.0728H18.0995H18.126H18.1525H18.1787H18.2049H18.2309H18.2568H18.2825H18.3081H18.3336H18.3589H18.3841H18.4091H18.434H18.4588H18.4834H18.5079H18.5322H18.5564H18.5804H18.6043H18.6281H18.6517H18.6752H18.6985H18.7217H18.7447H18.7675H18.7903H18.8128H18.8353H18.8575H18.8796H18.9016H18.9234H18.9451H18.9666H18.9879H19ZM17 16.5C17 16.2239 16.7761 16 16.5 16C16.2239 16 16 16.2239 16 16.5C16 16.7761 16.2239 17 16.5 17C16.7761 17 17 16.7761 17 16.5Z" fill="black"/>
</svg>
