<svg width="103" height="102" viewBox="0 0 103 102" fill="none" xmlns="http://www.w3.org/2000/svg">
<path fill-rule="evenodd" clip-rule="evenodd" d="M81.8124 30.1987C82.1211 30.1004 82.5274 30.297 82.9336 30.8377C82.9336 30.8377 82.9336 30.8377 101.296 48.9601C102.369 50.0416 102.369 51.6802 101.296 52.483C101.296 52.483 101.296 52.483 82.9336 70.884C82.5274 71.4247 82.1211 71.5558 81.8124 71.392C81.5036 71.2281 81.3086 70.7529 81.3086 70.0647V31.3785C81.3086 30.7067 81.5036 30.297 81.8124 30.1987Z" fill="#ED1C24"/>
<path fill-rule="evenodd" clip-rule="evenodd" d="M50.4009 0H51.701L52.9522 0.524339C52.9522 0.524339 52.9522 0.524338 71.8514 19.466C72.6639 20.5475 72.3876 21.3667 71.0389 21.3667C71.0389 21.3667 71.0389 21.3667 63.2062 21.3667C61.8574 21.3667 60.7849 22.4482 60.7849 23.8082C60.7849 23.8082 60.7849 23.8082 60.7849 37.867C60.7849 39.227 59.6961 40.3084 58.0711 40.3084C58.0711 40.3084 58.0711 40.3084 44.3071 40.3084C42.9583 40.3084 41.8695 39.227 41.8695 37.867C41.8695 37.867 41.8695 37.867 41.8695 23.8082C41.8695 22.4482 40.797 21.3667 39.432 21.3667H31.0631C29.7143 21.3667 29.438 20.5475 30.2505 19.466C30.2505 19.466 30.2505 19.466 49.1659 0.524339L50.4009 0Z" fill="#ED1C24"/>
<path fill-rule="evenodd" clip-rule="evenodd" d="M20.7923 29.7891C21.1335 29.9529 21.3448 30.4281 21.3448 31.1163V70.6054C21.3448 71.2936 21.1335 71.7033 20.7923 71.8344C20.4673 71.9654 19.996 71.8344 19.4435 71.4247C19.4435 71.4247 19.4435 71.4247 0.804391 52.483C-0.26813 51.6801 -0.26813 50.0416 0.804391 48.9601C0.804391 48.9601 0.804393 48.9601 19.4435 30.297C19.996 29.7563 20.4673 29.6252 20.7923 29.7891Z" fill="#ED1C24"/>
<path fill-rule="evenodd" clip-rule="evenodd" d="M44.307 60.8723C44.307 60.8723 44.307 60.8723 58.071 60.8723C59.6961 60.8723 60.7849 61.9537 60.7849 63.3137C60.7849 63.3137 60.7849 63.3137 60.7849 78.1918C60.7849 79.8139 61.8574 80.8954 63.2061 80.8954H70.5025C71.8513 80.8954 72.3876 81.6983 71.3151 82.5176C71.3151 82.5176 71.3151 82.5176 52.9522 101.181C52.3997 101.721 51.7334 102 51.0509 102C50.3846 102 49.7021 101.721 49.1659 101.181C49.1659 101.181 49.1659 101.181 30.803 82.5176C29.7142 81.6983 30.2505 80.8954 31.5993 80.8954C31.5993 80.8954 31.5993 80.8954 39.4319 80.8954C40.7969 80.8954 41.8695 79.8139 41.8695 78.1918C41.8695 78.1918 41.8695 78.1918 41.8695 63.3137C41.8695 61.9537 42.9582 60.8723 44.307 60.8723Z" fill="#ED1C24"/>
</svg>
