<svg width="303" height="36" viewBox="0 0 303 36" fill="none" xmlns="http://www.w3.org/2000/svg">
<path d="M0 24.1062V22.8249H4.57006V24.4561C4.56669 24.6705 4.61003 24.8831 4.69719 25.0796C4.78434 25.2761 4.91328 25.452 5.07534 25.5955C5.23739 25.7389 5.42881 25.8466 5.63671 25.9113C5.84462 25.9759 6.0642 25.9961 6.28068 25.9704C6.65005 26.0191 7.02456 25.9297 7.33011 25.7199C7.63565 25.5101 7.84998 25.1952 7.93066 24.8375C8.05332 24.4272 8.04293 23.9896 7.90091 23.5854C7.01757 21.3984 0.972596 20.4084 0.207106 16.9996C0.0502531 16.2513 0.0401557 15.4803 0.177356 14.7282C0.648779 11.9911 3.09629 11 6.13308 11C8.55084 11 11.8828 11.5535 11.8828 15.2232V16.4169H7.6366V15.3695C7.64939 15.1629 7.61657 14.9561 7.5404 14.7632C7.46422 14.5703 7.34649 14.3958 7.19528 14.2519C7.04408 14.1079 6.86298 13.9978 6.66442 13.9292C6.46586 13.8605 6.25454 13.8349 6.04497 13.8541C5.68676 13.8151 5.32676 13.9104 5.03697 14.1211C4.74717 14.3317 4.54895 14.6422 4.48195 14.9904C4.43412 15.2809 4.44422 15.5778 4.5117 15.8645C5.01288 17.8152 11.4698 18.8649 12.178 22.3895C12.3548 23.303 12.3649 24.2401 12.2078 25.157C11.7947 27.9515 9.25797 29 6.19258 29C2.975 29 0 27.8637 0 24.1062ZM55.3728 24.05V22.7664H59.8833V24.3684C59.8762 24.5808 59.9159 24.7922 59.9995 24.9882C60.0832 25.1842 60.2089 25.3601 60.368 25.504C60.5272 25.6479 60.716 25.7563 60.9216 25.8218C61.1273 25.8873 61.3449 25.9085 61.5596 25.8837C61.9262 25.9375 62.2999 25.8534 62.6061 25.6482C62.9124 25.443 63.1287 25.1318 63.2119 24.7768C63.334 24.3763 63.3236 23.9481 63.1821 23.5539C62.3274 21.3984 56.3419 20.4039 55.5753 16.9996C55.419 16.2611 55.4089 15.4998 55.5455 14.7575C56.0204 12.0485 58.4702 11.0585 61.4452 11.0585C63.8332 11.0585 67.1366 11.6412 67.1366 15.2525V16.4169H62.9201V15.3988C62.9336 15.1945 62.9022 14.9898 62.8281 14.7986C62.754 14.6074 62.6389 14.434 62.4906 14.2904C62.3423 14.1468 62.1644 14.0362 61.9688 13.9661C61.7732 13.8961 61.5646 13.8683 61.3571 13.8845C61.0056 13.8387 60.6497 13.9283 60.3639 14.1347C60.0781 14.341 59.8846 14.648 59.8238 14.9915C59.776 15.282 59.7861 15.5789 59.8536 15.8656C60.325 17.8164 66.7189 18.8368 67.4307 22.3321C67.6087 23.2356 67.6188 24.1634 67.4604 25.0704C67.0473 27.866 64.5415 28.8853 61.5104 28.8853C58.3214 28.8875 55.3728 27.7479 55.3728 24.05ZM71.5304 24.662C71.489 24.2945 71.4791 23.9242 71.5007 23.555V11.495H75.8053V23.9319C75.7998 24.146 75.8093 24.3603 75.8339 24.5731C75.9292 24.9245 76.1398 25.2351 76.4331 25.4567C76.7264 25.6783 77.086 25.7984 77.4558 25.7984C77.8257 25.7984 78.1852 25.6783 78.4786 25.4567C78.7719 25.2351 78.9825 24.9245 79.0778 24.5731C79.1032 24.3603 79.1131 24.146 79.1075 23.9319V11.495H83.4144V23.5539C83.4144 23.8745 83.3847 24.4865 83.3847 24.6609C83.0895 27.8109 80.5836 28.8234 77.4587 28.8234C74.3338 28.8234 71.8245 27.8064 71.5293 24.6597L71.5304 24.662ZM106.972 24.4876C106.927 24.1184 106.907 23.7468 106.911 23.375V16.301C106.911 16.0107 106.941 15.4865 106.971 15.194C107.354 12.0485 109.918 11.0585 112.956 11.0585C115.963 11.0585 118.617 12.0485 118.906 15.194C118.942 15.5619 118.952 15.9318 118.936 16.301V16.85H114.631V15.9219C114.632 15.7068 114.612 15.4921 114.572 15.2806C114.459 14.9255 114.233 14.6152 113.928 14.3949C113.623 14.1745 113.255 14.0557 112.876 14.0557C112.498 14.0557 112.129 14.1745 111.824 14.3949C111.519 14.6152 111.293 14.9255 111.18 15.2806C111.131 15.5401 111.111 15.8043 111.122 16.0681V23.7575C111.117 23.9717 111.127 24.1859 111.152 24.3988C111.254 24.7812 111.492 25.1151 111.823 25.34C112.154 25.5649 112.556 25.666 112.956 25.625C113.348 25.666 113.742 25.5642 114.062 25.3387C114.383 25.1133 114.608 24.78 114.695 24.4021C114.735 24.1907 114.745 23.975 114.725 23.7609V21.3106H112.985V18.8637H119V23.375C119.004 23.7448 118.985 24.1146 118.942 24.482C118.646 27.5398 115.967 28.6175 112.956 28.6175C109.946 28.6175 107.265 27.5431 106.971 24.4854L106.972 24.4876ZM46.9695 28.3003L46.8551 12.7471L43.903 28.3003H39.5984L36.6795 12.7471L36.565 28.3003H32.3199L32.6689 11.5242H39.5984L41.7507 24.6305L43.903 11.5242H50.8313L51.2158 28.3014L46.9695 28.3003ZM24.3252 28.3003L22.0242 12.7471L19.6659 28.3003H15.0661L18.1933 11.5242H25.7715L28.8964 28.3014L24.3252 28.3003ZM96.3854 28.1248L92.1106 14.1748L92.3463 28.1248H88.1584V11.5242H94.4677L98.4725 25.0389L98.2425 11.5242H102.459V28.1259L96.3854 28.1248Z" fill="black"/>
<rect x="138.5" y="0.5" width="164" height="35" rx="17.5" stroke="#CCCCCC"/>
<rect x="129" y="8" width="1" height="22" rx="0.5" fill="#CCCCCC"/>
<path fill-rule="evenodd" clip-rule="evenodd" d="M198.187 10.0487H201.741V13.6178H203.864V8H198.187V10.0487ZM177.442 11.0503H194.117V15.9682H188.745V27.7137H182.856V16.0099H177.442V11.0503ZM200.878 11.0503H195.072V27.7137H200.878V11.0503ZM202.521 18.0588H208.497V21.1875H202.521V18.0588ZM225.911 11.268H237.259V14.2716H230.327V17.7063H236.867V20.7516H230.286V24.5385H237.259V27.7136H225.911V11.268ZM268.707 11.268H272.995V27.7136H268.707V11.268ZM239.728 11.2679H246.439C246.439 11.2679 252.139 11.0083 252.139 16.6632C252.139 22.3181 246.139 21.9288 246.139 21.9288L243.97 22.0168V27.7134H239.728V11.2679ZM243.993 18.9483H245.682C245.682 18.9483 247.796 18.9484 247.796 16.5844C247.813 16.2787 247.767 15.9727 247.662 15.6852C247.557 15.3978 247.394 15.1351 247.184 14.9132C246.974 14.6913 246.721 14.5149 246.44 14.395C246.16 14.2751 245.858 14.2141 245.553 14.2158H243.993V18.9483ZM266.635 22.1462C266.538 21.0987 265.564 20.1855 265.112 19.8611C264.544 19.5772 263.942 19.3685 263.321 19.24C263.985 19.0832 264.6 18.7648 265.112 18.3129C265.516 17.8881 265.83 17.386 266.036 16.8365C266.242 16.287 266.336 15.7014 266.312 15.1147C266.312 13.7797 265.389 12.7646 264.493 12.0833C263.598 11.4019 261.212 11.2536 261.212 11.2536H253.675V27.713H260.414C261.412 27.7123 262.406 27.5735 263.367 27.3005C264.542 27.0341 265.569 26.3195 266.229 25.3074C266.732 24.4267 266.732 23.1891 266.635 22.1462ZM257.94 14.2154H259.989C259.989 14.2154 262.034 14.336 262.034 16.0371C262.034 17.6316 260.187 17.8587 260.187 17.8587H257.949L257.94 14.2154ZM260.414 24.6446H257.94V20.7649H260.215C260.215 20.7649 262.49 20.8901 262.49 22.7071C262.49 24.4035 260.414 24.6446 260.414 24.6446ZM283.628 24.5796C284.755 24.7049 285.895 24.6533 287.006 24.4266C287.6 24.2325 288.179 23.9987 288.742 23.7267L289 27.4349C287.884 27.6759 286.757 27.8569 285.622 27.9772C283.971 28.0608 282.317 27.9142 280.707 27.5415C279.406 27.1502 278.208 26.4742 277.199 25.5623C276.179 24.6908 275.182 22.3454 275.053 21.0152C274.928 19.7116 274.965 18.3974 275.164 17.1031C275.358 15.6245 276.761 13.3625 278.496 12.2732C280.231 11.184 282.525 10.8595 284.648 10.8595C286.13 10.9239 287.596 11.2018 289 11.6846V12.4633L288.677 15.2444C287.528 14.5318 286.214 14.1338 284.865 14.0902C282.783 14.0902 281.247 14.9616 280.684 15.6384C279.858 16.5182 279.388 17.6745 279.364 18.883C279.364 20.4265 279.728 22.2203 280.748 23.1473C281.541 23.9067 282.546 24.4062 283.628 24.5796ZM221.738 24.4266C220.627 24.6533 219.487 24.7049 218.36 24.5796C217.278 24.4051 216.274 23.9058 215.48 23.1473C214.46 22.2203 214.096 20.4265 214.096 18.883C214.12 17.6745 214.59 16.5182 215.416 15.6384C215.979 14.9616 217.52 14.0902 219.597 14.0902C220.946 14.133 222.261 14.531 223.409 15.2444L223.732 12.4633V11.6846C222.328 11.2018 220.863 10.9239 219.38 10.8595C217.257 10.8595 214.963 11.184 213.233 12.2732C211.502 13.3625 210.09 15.6245 209.896 17.1031C209.7 18.3976 209.663 19.7115 209.785 21.0152C209.919 22.3454 210.911 24.6908 211.931 25.5623C212.941 26.473 214.139 27.1488 215.439 27.5415C217.049 27.914 218.703 28.0607 220.354 27.9772C221.489 27.8569 222.616 27.6759 223.732 27.4349L223.474 23.7267C222.911 23.9987 222.332 24.2325 221.738 24.4266ZM166.287 18.4897L170.985 11.0503H176.574V27.7137H170.639V20.2511L166.287 26.9072L161.87 20.2511V27.7137H156V11.0503H161.631L166.287 18.4897Z" fill="black"/>
</svg>
