<svg width="22" height="22" viewBox="0 0 22 22" fill="none" xmlns="http://www.w3.org/2000/svg">
<path d="M7.36377 7.36365H14.6365" stroke="black" stroke-linecap="round" stroke-linejoin="round"/>
<path d="M7.36377 11H14.6365" stroke="black" stroke-linecap="round" stroke-linejoin="round"/>
<path d="M7.36377 14.6364H11.0001" stroke="black" stroke-linecap="round" stroke-linejoin="round"/>
<path d="M14.2614 21H1.90909C1.66798 21 1.43675 20.9042 1.26627 20.7337C1.09578 20.5632 1 20.332 1 20.0909V1.90909C1 1.66798 1.09578 1.43675 1.26627 1.26627C1.43675 1.09578 1.66798 1 1.90909 1H20.0909C20.332 1 20.5632 1.09578 20.7337 1.26627C20.9042 1.43675 21 1.66798 21 1.90909V14.2614C21.0004 14.3794 20.9775 14.4964 20.9327 14.6056C20.8878 14.7148 20.8219 14.814 20.7386 14.8977L14.8977 20.7386C14.814 20.8219 14.7148 20.8878 14.6056 20.9327C14.4964 20.9775 14.3794 21.0004 14.2614 21V21Z" stroke="black" stroke-linecap="round" stroke-linejoin="round"/>
<path d="M20.9203 14.6364H14.6362V20.9204" stroke="black" stroke-linecap="round" stroke-linejoin="round"/>
</svg>
