<svg width="159" height="72" viewBox="0 0 159 72" fill="none" xmlns="http://www.w3.org/2000/svg">
<path fill-rule="evenodd" clip-rule="evenodd" d="M0.445312 1.3031C0.445312 1.3031 0.445312 1.3031 6.37668 1.3031C8.53798 1.3031 9.62675 2.38455 9.62675 4.82599C9.62675 4.82599 9.62675 4.82599 9.62675 13.4776C9.62675 13.4776 9.62675 13.4776 21.2457 13.4776C21.2457 13.4776 21.2457 13.4776 21.2457 4.82599C21.2457 2.38455 22.3183 1.3031 24.7558 1.3031C24.7558 1.3031 24.7558 1.3031 30.4272 1.3031C30.4272 1.3031 30.4272 1.3031 30.4272 6.98889C30.4272 6.98889 30.4272 6.98889 28.0059 6.98889L27.7296 7.26744C27.7296 7.26744 27.7296 7.26744 27.7296 31.6164C27.7296 31.6164 27.7296 31.6164 21.2457 31.6164C21.2457 31.6164 21.2457 31.6164 21.2457 19.4419C21.2457 19.4419 21.2457 19.4419 9.62675 19.4419C9.62675 19.4419 9.62675 19.4419 9.62675 31.6164C9.62675 31.6164 9.62675 31.6164 3.14287 31.6164C3.14287 31.6164 3.14287 31.6164 3.14287 7.26744C3.14287 7.26744 3.14287 6.98889 2.86661 6.98889C2.86661 6.98889 2.86661 6.98889 0.445312 6.98889C0.445312 6.98889 0.445312 6.98888 0.445312 1.3031Z" fill="#ED1C24"/>
<path fill-rule="evenodd" clip-rule="evenodd" d="M47.4407 0.76239L47.5869 0.778772V7.02167L47.4407 6.9889C42.5819 6.9889 38.7955 11.0525 38.7955 16.1976C38.7955 21.6048 42.5819 25.9306 47.4407 25.9306L47.5869 25.8978V32.1407L47.4407 32.1571C38.7955 32.1571 31.7754 25.1277 31.7754 16.1976C31.7754 7.52962 38.7955 0.76239 47.4407 0.76239Z" fill="#ED1C24"/>
<path fill-rule="evenodd" clip-rule="evenodd" d="M47.5879 0.778778L50.5942 1.07373C57.7281 2.48288 63.1069 8.61107 63.1069 16.1976C63.1069 23.9971 57.7281 30.3711 50.5942 31.8294L47.5879 32.1407V25.8978L50.8867 25.1769C54.0718 23.7022 56.3631 20.2448 56.3631 16.1976C56.3631 12.3306 54.0718 9.08626 50.8867 7.70987L47.5879 7.02168V0.778778Z" fill="#ED1C24"/>
<path fill-rule="evenodd" clip-rule="evenodd" d="M64.4551 1.3031C64.4551 1.3031 64.4551 1.3031 73.5065 1.3031H77.8291V6.98889H77.4228C76.8866 6.98889 75.7978 6.98889 73.6365 6.98889C73.6365 6.98889 73.6365 6.98889 73.6365 13.2154C73.6365 13.2154 73.6365 13.2154 75.4728 13.2154H77.8291V18.6226H76.4478C75.7653 18.6226 74.8553 18.6226 73.6365 18.6226C73.6365 18.6226 73.6365 18.6226 73.6365 25.3898C73.6365 25.6684 73.6365 25.6684 73.9128 25.6684C73.9128 25.6684 73.9128 25.6684 75.8466 25.6684H77.8291V31.6164H77.2603C76.2853 31.6164 74.319 31.6164 70.4027 31.6164C68.2414 31.6164 67.1689 30.5349 67.1689 28.0935V6.98889C67.1689 6.98889 67.1689 6.98889 64.4551 6.98889C64.4551 6.98889 64.4551 6.98888 64.4551 1.3031Z" fill="#ED1C24"/>
<path fill-rule="evenodd" clip-rule="evenodd" d="M77.8301 1.3031H77.9601C83.9077 1.3031 87.4178 4.54744 87.4178 9.43034C87.4178 12.3961 86.069 14.2968 84.7202 15.6568C87.1577 16.7383 88.7665 19.4419 88.7665 22.4077C88.7665 28.0935 84.444 31.6164 78.2363 31.6164C78.2363 31.6164 78.2363 31.6164 78.1226 31.6164H77.8301V25.6684H78.4963C80.6576 25.6684 82.0227 24.3084 82.0227 22.1455C82.0227 19.9826 80.6576 18.6226 78.4963 18.6226C78.4963 18.6226 78.4963 18.6226 77.8951 18.6226H77.8301V13.2154H77.9601C79.8614 13.2154 80.9339 11.8554 80.9339 9.97106C80.9339 8.07033 79.8614 6.98889 77.9601 6.98889C77.9601 6.98889 77.9601 6.98889 77.8951 6.98889H77.8301V1.3031Z" fill="#ED1C24"/>
<path fill-rule="evenodd" clip-rule="evenodd" d="M101.197 1.3031C101.197 1.3031 101.197 1.3031 103.927 1.3031H104.431V9.97106C104.171 10.5118 103.895 11.3147 103.895 12.134C103.895 12.134 103.895 12.134 101.733 18.3605C101.733 18.3605 101.733 18.3605 104.025 18.3605H104.431V24.0299H102.968C102.14 24.0299 101.197 24.0299 100.125 24.0299C100.125 24.0299 100.125 24.0299 98.2233 28.9127C97.687 30.7971 96.6145 31.6164 94.4532 31.6164C94.4532 31.6164 94.4532 31.6164 90.3906 31.6164C90.3906 31.6164 90.3906 31.6164 90.3906 25.6684C90.3906 25.6684 90.3906 25.6684 91.7394 25.6684C92.2919 25.6684 92.2919 25.6684 92.5519 25.3898C92.5519 25.3898 92.5519 25.3898 101.197 1.3031Z" fill="#ED1C24"/>
<path fill-rule="evenodd" clip-rule="evenodd" d="M104.432 1.3031H107.682C107.682 1.3031 107.682 1.3031 116.327 25.3898C116.587 25.6684 116.587 25.6684 117.123 25.6684C117.123 25.6684 117.123 25.6684 118.212 25.6684C118.212 25.6684 118.212 25.6684 118.212 31.6164C118.212 31.6164 118.212 31.6164 114.426 31.6164C112.264 31.6164 111.192 30.7971 110.639 28.6342C110.639 28.6342 110.639 28.6342 108.754 24.0299C108.754 24.0299 108.754 24.0299 105.114 24.0299H104.432V18.3605H107.129C107.129 18.3605 107.129 18.3605 104.984 12.134C104.984 11.3147 104.708 10.5118 104.432 9.97106V1.3031Z" fill="#ED1C24"/>
<path fill-rule="evenodd" clip-rule="evenodd" d="M0.445313 40.2679C0.445313 40.2679 0.44531 40.2679 23.9433 40.2679C26.1046 40.2679 27.4534 41.3494 27.4534 43.7908C27.4534 43.7908 27.4534 43.7908 27.4534 64.3547C27.4534 64.6168 27.4534 64.6168 27.7296 64.6168C27.7296 64.6168 27.7296 64.6168 29.8909 64.6168C29.8909 64.6168 29.8909 64.6168 29.8909 70.5812C29.8909 70.5812 29.8909 70.5812 24.2196 70.5812C21.782 70.5812 20.7095 69.4997 20.7095 67.0583C20.7095 67.0583 20.7095 67.0583 20.7095 46.2323C20.7095 46.2323 20.7095 45.9537 20.4332 45.9537C20.4332 45.9537 20.4332 45.9537 9.62675 45.9537C9.62675 45.9537 9.62675 45.9537 9.62675 70.5812C9.62675 70.5812 9.62675 70.5812 3.14287 70.5812C3.14287 70.5812 3.14287 70.5812 3.14287 45.9537C3.14287 45.9537 3.14287 45.9537 0.445313 45.9537C0.445313 45.9537 0.445313 45.9537 0.445313 40.2679Z" fill="#ED1C24"/>
<path fill-rule="evenodd" clip-rule="evenodd" d="M46.9053 39.7272L47.0353 39.7436V45.9865L46.9053 45.9538C42.0302 45.9538 38.2601 50.0174 38.2601 55.1624C38.2601 60.5697 42.0302 64.8954 46.9053 64.8954L47.0353 64.8627V71.1056L46.9053 71.1219C38.2601 71.1219 31.5 64.0762 31.5 55.1624C31.5 46.4945 38.2601 39.7272 46.9053 39.7272Z" fill="#ED1C24"/>
<path fill-rule="evenodd" clip-rule="evenodd" d="M47.0352 39.7436L50.139 40.0385C57.4029 41.4477 62.5705 47.5759 62.5705 55.1624C62.5705 62.9619 57.4029 69.3359 50.139 70.7942L47.0352 71.1055V64.8626L50.464 64.1417C53.6978 62.667 55.8266 59.2096 55.8266 55.1624C55.8266 51.2954 53.6978 48.0511 50.464 46.6747L47.0352 45.9865V39.7436Z" fill="#ED1C24"/>
<path fill-rule="evenodd" clip-rule="evenodd" d="M63.9199 40.2679C63.9199 40.2679 63.9199 40.2679 69.8675 40.2679C72.0288 40.2679 73.1014 41.3494 73.1014 43.7908C73.1014 43.7908 73.1014 43.7908 73.1014 64.3547C73.1014 64.6168 73.1014 64.6168 73.3776 64.6168C73.3776 64.6168 73.3776 64.6168 81.2103 64.6168C81.2103 64.6168 81.2103 64.6168 81.2103 40.2679C81.2103 40.2679 81.2103 40.2679 87.6941 40.2679C87.6941 40.2679 87.6941 40.2679 87.6941 64.6168C87.6941 64.6168 87.6941 64.6168 95.5268 64.6168C95.8031 64.6168 95.8031 64.6168 95.8031 64.3547C95.8031 64.3547 95.8031 64.3547 95.8031 43.7908C95.8031 41.3494 96.8756 40.2679 99.0369 40.2679C99.0369 40.2679 99.0369 40.2679 104.984 40.2679C104.984 40.2679 104.984 40.2679 104.984 45.9537C104.984 45.9537 104.984 45.9537 102.547 45.9537C102.271 45.9537 102.271 46.2323 102.271 46.2323C102.271 46.2323 102.271 46.2323 102.271 67.0583C102.271 69.4997 101.198 70.5812 99.0369 70.5812C99.0369 70.5812 99.0369 70.5812 70.1275 70.5812C67.7062 70.5812 66.6175 69.4997 66.6175 67.0583C66.6175 67.0583 66.6175 67.0583 66.6175 46.2323C66.6175 46.2323 66.6175 45.9537 66.3575 45.9537C66.3575 45.9537 66.3575 45.9537 63.9199 45.9537C63.9199 45.9537 63.9199 45.9537 63.9199 40.2679Z" fill="#ED1C24"/>
<path fill-rule="evenodd" clip-rule="evenodd" d="M110.103 40.2679C110.103 40.2679 110.103 40.2679 130.367 40.2679C132.804 40.2679 133.617 41.3494 133.617 43.5123C133.617 43.5123 133.617 43.5123 133.617 48.6573H127.669C127.669 48.6573 127.669 48.6573 127.669 46.2323C127.669 45.9537 127.669 45.9537 127.393 45.9537C127.393 45.9537 127.393 45.9537 123.623 45.9537C123.623 45.9537 123.623 45.9537 123.623 70.5812C123.623 70.5812 123.623 70.5812 117.123 70.5812C117.123 70.5812 117.123 70.5812 117.123 45.9537C117.123 45.9537 117.123 45.9537 113.353 45.9537C113.077 45.9537 113.077 45.9537 113.077 46.2323C113.077 46.2323 113.077 46.2323 113.077 48.6573C113.077 48.6573 113.077 48.6573 107.129 48.6573C107.129 48.6573 107.129 48.6573 107.129 43.5123C107.129 41.3494 107.941 40.2679 110.103 40.2679Z" fill="#ED1C24"/>
<path fill-rule="evenodd" clip-rule="evenodd" d="M141.986 40.2679C141.986 40.2679 141.986 40.2679 144.716 40.2679H145.22V48.9359C144.944 49.4766 144.684 50.2795 144.684 51.0988C144.684 51.0988 144.684 51.0988 142.522 57.3253C142.522 57.3253 142.522 57.3253 144.797 57.3253H145.22V62.9947H143.757C142.929 62.9947 141.986 62.9947 140.897 62.9947C140.897 62.9947 140.897 62.9947 139.012 67.599C138.476 69.7619 137.387 70.5812 135.226 70.5812C135.226 70.5812 135.226 70.5812 131.18 70.5812C131.18 70.5812 131.18 70.5812 131.18 64.6168C131.18 64.6168 131.18 64.6168 132.528 64.6168C133.081 64.6168 133.081 64.6168 133.341 64.3547C133.341 64.3547 133.341 64.3547 141.986 40.2679Z" fill="#ED1C24"/>
<path fill-rule="evenodd" clip-rule="evenodd" d="M145.221 40.2679H148.455C148.455 40.2679 148.455 40.2679 157.116 64.3547C157.376 64.6168 157.376 64.6168 157.928 64.6168H159.001C159.001 64.6168 159.001 64.6168 159.001 70.5812C159.001 70.5812 159.001 70.5812 155.215 70.5812C153.053 70.5812 151.981 69.7619 151.428 67.599C151.428 67.599 151.428 67.599 149.543 62.9947C149.543 62.9947 149.543 62.9947 145.903 62.9947H145.221V57.3253H147.918C147.918 57.3253 147.918 57.3253 145.757 51.0988C145.757 50.2795 145.497 49.4766 145.221 48.9359V40.2679Z" fill="#ED1C24"/>
</svg>
