<svg width="13" height="27" viewBox="0 0 13 27" fill="none" xmlns="http://www.w3.org/2000/svg">
<path fill-rule="evenodd" clip-rule="evenodd" d="M6.5 2.27459C6.62449 2.27459 6.72541 2.37551 6.72541 2.5C6.72541 2.62449 6.62449 2.72541 6.5 2.72541C6.37551 2.72541 6.27459 2.62449 6.27459 2.5C6.27459 2.37551 6.37551 2.27459 6.5 2.27459ZM6.5 2C6.77614 2 7 2.22386 7 2.5C7 2.77614 6.77614 3 6.5 3C6.22386 3 6 2.77614 6 2.5C6 2.22386 6.22386 2 6.5 2Z" fill="black"/>
<path fill-rule="evenodd" clip-rule="evenodd" d="M11.2693 0.442623H1.73075C1.01385 0.442623 0.432688 1.03713 0.432688 1.77049V25.2295C0.432688 25.9629 1.01385 26.5574 1.73075 26.5574H11.2692C11.9862 26.5574 12.5673 25.9629 12.5673 25.2295V1.77049C12.5673 1.03713 11.9862 0.442623 11.2693 0.442623ZM1.73075 0C0.774883 0 0 0.792676 0 1.77049V25.2295C0 26.2073 0.774882 27 1.73075 27H11.2692C12.2251 27 13 26.2073 13 25.2295V1.77049C13 0.792676 12.2251 0 11.2693 0H1.73075Z" fill="black"/>
</svg>
