<svg width="21" height="20" viewBox="0 0 21 20" fill="none" xmlns="http://www.w3.org/2000/svg">
<g clip-path="url(#clip0_751_20180)">
<path fill-rule="evenodd" clip-rule="evenodd" d="M11.4587 18.2502L10.6246 18.6352V10.6352L19.2199 6.47015V10.8302L20.2371 11.6402V5.64015C20.2424 5.59865 20.2424 5.55666 20.2371 5.51515C20.2264 5.47363 20.211 5.43338 20.1913 5.39515V5.36515C20.1739 5.34088 20.1553 5.31751 20.1354 5.29515L20.0947 5.26016L20.0388 5.22015L10.4263 0.0601502C10.3489 0.016266 10.2612 -0.00683594 10.172 -0.00683594C10.0827 -0.00683594 9.99497 0.016266 9.91766 0.0601502L0.264471 5.22015L0.208529 5.26016C0.195415 5.27053 0.183479 5.28226 0.172927 5.29515C0.149939 5.31612 0.129461 5.33961 0.111894 5.36515V5.39515C0.0885571 5.43224 0.0713888 5.47275 0.061035 5.51515C0.0554607 5.55497 0.0554607 5.59534 0.061035 5.63516V14.9552C0.0613064 15.0494 0.0886641 15.1416 0.139956 15.2213C0.191249 15.3009 0.264387 15.3646 0.350936 15.4052L9.96343 19.8352C10.023 19.8601 10.0869 19.8737 10.1516 19.8752C10.2181 19.8744 10.2837 19.8608 10.3449 19.8352L11.5197 19.2952L11.4587 18.2502ZM9.60741 18.6352L1.0172 14.6752V6.46515L9.62776 10.6302L9.60741 18.6352ZM11.0976 9.30016L10.1364 9.75015L8.14774 8.78516L1.6326 5.62515L6.0574 3.25015L14.3577 7.70516L11.0976 9.30016ZM15.4512 7.19016L7.10003 2.69016L10.116 1.07015L18.6249 5.63516L15.4512 7.19016ZM20.2371 12.9049C19.9641 12.4869 19.62 12.1182 19.2199 11.8149C18.3595 11.1522 17.2897 10.8076 16.1972 10.8414C15.1047 10.8751 14.059 11.285 13.2426 11.9995C12.4262 12.714 11.891 13.6876 11.7304 14.7505C11.5698 15.8134 11.7941 16.898 12.364 17.8149C12.5487 18.1056 12.7653 18.3755 13.0099 18.6199C13.4413 19.0564 13.9577 19.4032 14.5283 19.6394C15.0989 19.8756 15.712 19.9965 16.3311 19.9949C17.5689 19.9935 18.7557 19.5095 19.631 18.649C20.5063 17.7885 20.9987 16.6218 21 15.4049C21.0007 14.516 20.7354 13.6466 20.2371 12.9049ZM16.3311 18.9999C15.3643 18.9959 14.4383 18.6163 13.7552 17.9437C13.072 17.2712 12.6871 16.3603 12.6844 15.4099C12.6844 14.6996 12.8987 14.0053 13.3002 13.4149C13.7017 12.8244 14.2723 12.3642 14.9399 12.0927C15.6074 11.8211 16.3419 11.7503 17.0504 11.8892C17.759 12.0281 18.4096 12.3706 18.9201 12.8731C19.4306 13.3757 19.778 14.0158 19.9183 14.7126C20.0587 15.4093 19.9856 16.1313 19.7085 16.7872C19.4313 17.4431 18.9624 18.0034 18.3612 18.3973C17.7601 18.7911 17.0535 19.0009 16.3311 18.9999ZM15.5326 16.9049C15.6277 16.9924 15.7533 17.0407 15.8835 17.0399C16.0155 17.042 16.1432 16.9936 16.2395 16.9049L18.2993 14.9699L17.5975 14.2449L15.8886 15.8499L14.8714 14.9099L14.1746 15.6399L15.5326 16.9049Z" fill="black"/>
</g>
<defs>
<clipPath id="clip0_751_20180">
<rect width="21" height="20" fill="white"/>
</clipPath>
</defs>
</svg>
