<svg width="20" height="20" viewBox="0 0 20 20" fill="none" xmlns="http://www.w3.org/2000/svg">
<path fill-rule="evenodd" clip-rule="evenodd" d="M9.5 16.7248C13.4903 16.7248 16.725 13.4901 16.725 9.5C16.725 5.50992 13.4903 2.27521 9.5 2.27521C5.50974 2.27521 2.275 5.50992 2.275 9.5C2.275 13.4901 5.50974 16.7248 9.5 16.7248ZM9.5 18C14.1944 18 18 14.1946 18 9.5C18 4.80539 14.1944 1 9.5 1C4.80558 1 1 4.80539 1 9.5C1 14.1946 4.80558 18 9.5 18ZM8.70312 7.53427H8.01251V9.02167H8.70312V14.3342H10.2969V7.53427H9.50001H8.70312ZM9.39375 6.52469C9.92187 6.52469 10.35 6.09668 10.35 5.56854C10.35 5.04041 9.92187 4.6124 9.39375 4.6124C8.86563 4.6124 8.4375 5.04041 8.4375 5.56854C8.4375 6.09668 8.86563 6.52469 9.39375 6.52469Z" fill="black"/>
</svg>
