<svg width="26" height="36" viewBox="0 0 26 36" fill="none" xmlns="http://www.w3.org/2000/svg">
<path fill-rule="evenodd" clip-rule="evenodd" d="M15 1H4C2.34315 1 1 2.34315 1 4V32C1 33.6569 2.34315 35 4 35H15C16.6569 35 18 33.6569 18 32V17.9947C14.9403 17.8638 12.5 15.3419 12.5 12.25C12.5 9.15813 14.9403 6.63623 18 6.50534V4C18 2.34315 16.6569 1 15 1ZM19 6.54847V4C19 1.79086 17.2091 0 15 0H4C1.79086 0 0 1.79086 0 4V32C0 34.2091 1.79086 36 4 36H15C17.2091 36 19 34.2091 19 32V17.9515C20.1141 17.8064 21.1279 17.3424 21.947 16.6541L24.6465 19.3536C24.8417 19.5488 25.1583 19.5488 25.3536 19.3536C25.5488 19.1583 25.5488 18.8417 25.3536 18.6465L22.6541 15.947C23.4941 14.9474 24 13.6578 24 12.25C24 9.32855 21.8213 6.91598 19 6.54847ZM13.5 12.2301C13.5 12.2367 13.5 12.2434 13.5 12.25C13.5 14.542 15.1233 16.4548 17.2829 16.9015C17.5936 16.9661 17.9154 17 18.245 17C18.5019 17 18.7541 16.9794 19 16.9397V16.9411C21.267 16.5815 23 14.6182 23 12.25C23 11.9105 22.9644 11.5794 22.8967 11.2601C22.4602 9.06968 20.5434 7.42 18.245 7.42C15.6244 7.42 13.5 9.56456 13.5 12.21C13.5 12.2167 13.5 12.2234 13.5 12.2301ZM9.5 5C9.22386 5 9 4.77614 9 4.5C9 4.22386 9.22386 4 9.5 4C9.77614 4 10 4.22386 10 4.5C10 4.77614 9.77614 5 9.5 5ZM11 4.5C11 3.67157 10.3284 3 9.5 3C8.67157 3 8 3.67157 8 4.5C8 5.32843 8.67157 6 9.5 6C10.3284 6 11 5.32843 11 4.5Z" fill="black"/>
</svg>
