<svg width="110" height="110" viewBox="0 0 110 110" fill="none" xmlns="http://www.w3.org/2000/svg">
<circle cx="55" cy="55" r="54.5" stroke="black"/>
<g clip-path="url(#clip0_160_1001)">
<path d="M67.809 56.9899L66.419 57.1299C66.2681 54.7326 65.4308 52.4293 64.0069 50.4947C62.583 48.5602 60.6327 47.0761 58.3885 46.2195C56.1444 45.3629 53.7012 45.1699 51.3504 45.6637C48.9997 46.1574 46.8405 47.3169 45.1306 49.0039C43.4207 50.691 42.2322 52.8343 41.7068 55.1782C41.1815 57.5221 41.3415 59.9677 42.1678 62.2231C42.9941 64.4786 44.4518 66.4488 46.367 67.8986C48.2821 69.3484 50.574 70.2167 52.969 70.3999L52.649 71.7799C50.0007 71.5371 47.4774 70.5407 45.3776 68.9087C43.2778 67.2766 41.6895 65.0772 40.8006 62.5708C39.9117 60.0643 39.7594 57.3556 40.3617 54.7653C40.9641 52.175 42.2958 49.8114 44.1994 47.9543C46.103 46.0971 48.4988 44.8242 51.1032 44.286C53.7076 43.7479 56.4117 43.967 58.8954 44.9176C61.3792 45.8682 63.5386 47.5103 65.1183 49.6497C66.698 51.7892 67.6317 54.3364 67.809 56.9899Z" fill="black"/>
<path d="M54.6007 48.47V57.76L50.0907 62.61C49.9533 62.7492 49.7663 62.8283 49.5707 62.83C49.4837 62.8309 49.3974 62.8146 49.3168 62.782C49.2361 62.7493 49.1627 62.7011 49.1007 62.64C49.0342 62.5749 48.9814 62.497 48.9453 62.4112C48.9092 62.3253 48.8906 62.2332 48.8906 62.14C48.8906 62.0469 48.9092 61.9547 48.9453 61.8689C48.9814 61.783 49.0342 61.7052 49.1007 61.64L53.2407 57.2V48.47C53.2407 48.2844 53.3145 48.1063 53.4458 47.9751C53.577 47.8438 53.7551 47.77 53.9407 47.77C54.1264 47.77 54.3044 47.8438 54.4357 47.9751C54.567 48.1063 54.6407 48.2844 54.6407 48.47H54.6007Z" fill="black"/>
<path d="M61.9491 68.39C61.7612 68.3889 61.5814 68.3134 61.4491 68.18L59.2091 65.93C59.0765 65.7974 59.002 65.6175 59.002 65.43C59.002 65.2424 59.0765 65.0626 59.2091 64.93C59.3417 64.7974 59.5215 64.7229 59.7091 64.7229C59.8966 64.7229 60.0765 64.7974 60.2091 64.93L61.9491 66.68L67.7291 60.81C67.7942 60.7434 67.872 60.6906 67.9579 60.6545C68.0437 60.6185 68.1359 60.5999 68.2291 60.5999C68.3222 60.5999 68.4144 60.6185 68.5002 60.6545C68.5861 60.6906 68.6639 60.7434 68.7291 60.81C68.861 60.9429 68.935 61.1227 68.935 61.31C68.935 61.4973 68.861 61.677 68.7291 61.81L62.4491 68.19C62.3139 68.3191 62.1359 68.3938 61.9491 68.4V68.39Z" fill="black"/>
<path d="M69.8105 66.07C69.8097 67.6303 69.3457 69.1553 68.4772 70.4517C67.6088 71.7481 66.3751 72.7574 64.9324 73.3518C63.4897 73.9462 61.903 74.099 60.3734 73.7907C58.8438 73.4824 57.4402 72.7269 56.3405 71.62L55.3405 70.35C54.5065 69.0788 54.0648 67.5903 54.0704 66.07C54.0629 64.7859 54.3708 63.5197 54.9672 62.3825C55.5636 61.2454 56.4302 60.2721 57.4908 59.5483C58.5514 58.8244 59.7735 58.3721 61.0498 58.2312C62.3261 58.0903 63.6175 58.265 64.8105 58.74V60.27C63.9262 59.8249 62.9504 59.5921 61.9604 59.59C60.7432 59.588 59.5501 59.9295 58.5182 60.5751C57.4863 61.2208 56.6574 62.1444 56.1269 63.24C55.5963 64.3355 55.3856 65.5585 55.5189 66.7685C55.6522 67.9784 56.1241 69.1262 56.8805 70.08C57.2136 70.5109 57.6038 70.8944 58.0404 71.22C58.9997 71.9535 60.1451 72.4039 61.347 72.5202C62.549 72.6366 63.7595 72.4143 64.8416 71.8784C65.9238 71.3425 66.8343 70.5145 67.4703 69.488C68.1063 68.4615 68.4424 67.2775 68.4405 66.07H69.8105Z" fill="black"/>
</g>
<defs>
<clipPath id="clip0_160_1001">
<rect width="29.83" height="29.95" fill="white" transform="translate(40 44)"/>
</clipPath>
</defs>
</svg>
