<svg width="110" height="110" viewBox="0 0 110 110" fill="none" xmlns="http://www.w3.org/2000/svg">
<path d="M60.332 47.595C60.332 47.2664 60.5984 47 60.927 47V47C61.2556 47 61.522 47.2664 61.522 47.595V54.735C61.522 55.0636 61.2556 55.33 60.927 55.33V55.33C60.5984 55.33 60.332 55.0636 60.332 54.735V47.595Z" fill="black"/>
<path d="M74 47.595C74 47.2664 74.2664 47 74.595 47V47C74.9236 47 75.19 47.2664 75.19 47.595V54.735C75.19 55.0636 74.9236 55.33 74.595 55.33V55.33C74.2664 55.33 74 55.0636 74 54.735V47.595Z" fill="black"/>
<path d="M78 47.595C78 47.2664 78.2664 47 78.595 47V47C78.9236 47 79.19 47.2664 79.19 47.595V54.735C79.19 55.0636 78.9236 55.33 78.595 55.33V55.33C78.2664 55.33 78 55.0636 78 54.735V47.595Z" fill="black"/>
<path d="M64 47.595C64 47.2664 64.2664 47 64.595 47V47C64.9236 47 65.19 47.2664 65.19 47.595V54.735C65.19 55.0636 64.9236 55.33 64.595 55.33V55.33C64.2664 55.33 64 55.0636 64 54.735V47.595Z" fill="black"/>
<path d="M66 47.595C66 47.2664 66.2664 47 66.595 47V47C66.9236 47 67.19 47.2664 67.19 47.595V54.735C67.19 55.0636 66.9236 55.33 66.595 55.33V55.33C66.2664 55.33 66 55.0636 66 54.735V47.595Z" fill="black"/>
<path d="M68 47.595C68 47.2664 68.2664 47 68.595 47V47C68.9236 47 69.19 47.2664 69.19 47.595V54.735C69.19 55.0636 68.9236 55.33 68.595 55.33V55.33C68.2664 55.33 68 55.0636 68 54.735V47.595Z" fill="black"/>
<path d="M70 47.595C70 47.2664 70.2664 47 70.595 47V47C70.9236 47 71.19 47.2664 71.19 47.595V54.735C71.19 55.0636 70.9236 55.33 70.595 55.33V55.33C70.2664 55.33 70 55.0636 70 54.735V47.595Z" fill="black"/>
<path d="M72 47.595C72 47.2664 72.2664 47 72.595 47V47C72.9236 47 73.19 47.2664 73.19 47.595V54.735C73.19 55.0636 72.9236 55.33 72.595 55.33V55.33C72.2664 55.33 72 55.0636 72 54.735V47.595Z" fill="black"/>
<path d="M80 47.595C80 47.2664 80.2664 47 80.595 47V47C80.9236 47 81.19 47.2664 81.19 47.595V54.735C81.19 55.0636 80.9236 55.33 80.595 55.33V55.33C80.2664 55.33 80 55.0636 80 54.735V47.595Z" fill="black"/>
<path fill-rule="evenodd" clip-rule="evenodd" d="M83 44.186H59C55.2445 44.186 52.2 47.1951 52.2 50.907V52.093C52.2 55.8049 55.2445 58.814 59 58.814H83C86.7555 58.814 89.8 55.8049 89.8 52.093V50.907C89.8 47.1951 86.7555 44.186 83 44.186ZM59 43C54.5817 43 51 46.5401 51 50.907V52.093C51 56.4599 54.5817 60 59 60H83C87.4183 60 91 56.4599 91 52.093V50.907C91 46.5401 87.4183 43 83 43H59Z" fill="black"/>
<path fill-rule="evenodd" clip-rule="evenodd" d="M46.4004 40.9999C46.4004 40.6685 46.669 40.3999 47.0004 40.3999H53.0004C53.3318 40.3999 53.6004 40.6685 53.6004 40.9999C53.6004 41.3313 53.3318 41.5999 53.0004 41.5999H47.0004C46.669 41.5999 46.4004 41.3313 46.4004 40.9999ZM47.9004 71.9999C47.9004 71.6685 48.169 71.3999 48.5004 71.3999H51.5004C51.8318 71.3999 52.1004 71.6685 52.1004 71.9999C52.1004 72.3313 51.8318 72.5999 51.5004 72.5999H48.5004C48.169 72.5999 47.9004 72.3313 47.9004 71.9999Z" fill="black"/>
<path fill-rule="evenodd" clip-rule="evenodd" d="M43 38.5H57C58.3807 38.5 59.5 39.6193 59.5 41V41C59.5 41.2209 59.6791 41.4 59.9 41.4H60.6C60.8209 41.4 61 41.2209 61 41V41C61 38.7909 59.2091 37 57 37H43C40.7909 37 39 38.7909 39 41V71C39 73.2091 40.7909 75 43 75H57C59.2091 75 61 73.2091 61 71V62.15C61 61.7358 60.6642 61.4 60.25 61.4V61.4C59.8358 61.4 59.5 61.7358 59.5 62.15V71C59.5 72.3807 58.3807 73.5 57 73.5H43C41.6193 73.5 40.5 72.3807 40.5 71V41C40.5 39.6193 41.6193 38.5 43 38.5Z" fill="black"/>
<circle cx="55" cy="55" r="54.5" stroke="black"/>
</svg>
