<?xml version="1.0" encoding="utf-8"?><svg viewBox="0 0 30 57" xmlns="http://www.w3.org/2000/svg" xmlns:xlink="http://www.w3.org/1999/xlink"><style>:root>svg{display:none}:root>svg:target{display:block}</style><svg viewBox="0 0 8 5" fill="none" id="arrow" xmlns="http://www.w3.org/2000/svg"><path d="M1 1l3 3 3-3"/></svg><svg viewBox="0 0 25 25" id="calendar" xmlns="http://www.w3.org/2000/svg"><path d="M19.111 3.9h-.944V2h-1.89v1.9H8.723V2H6.833v1.9H5.89c-1.048 0-1.88.855-1.88 1.9L4 19.1c0 1.045.84 1.9 1.889 1.9H19.11A1.9 1.9 0 0021 19.1V5.8a1.9 1.9 0 00-1.889-1.9zm0 15.2H5.89V8.65H19.11V19.1zM7.778 10.55H12.5v4.75H7.778v-4.75z"/><path d="M19.111 3.9h-.944V2h-1.89v1.9H8.723V2H6.833v1.9H5.89c-1.048 0-1.88.855-1.88 1.9L4 19.1c0 1.045.84 1.9 1.889 1.9H19.11A1.9 1.9 0 0021 19.1V5.8a1.9 1.9 0 00-1.889-1.9zm0 15.2H5.89V8.65H19.11V19.1zM7.778 10.55H12.5v4.75H7.778v-4.75z"/></svg><svg viewBox="0 0 13 9" fill="none" id="check" xmlns="http://www.w3.org/2000/svg"><path d="M1 3.733L5.174 8 12.5.5"/></svg><svg viewBox="0 0 16 16" fill="none" id="double-arrow" xmlns="http://www.w3.org/2000/svg"><path d="M3 8l5-5 5 5M3 13l5-5 5 5"/></svg><svg viewBox="0 0 30 30" id="facebook" xmlns="http://www.w3.org/2000/svg"><g clip-path="url(#eclip0_1095_3426)"><path d="M15 2.5C8.096 2.5 2.5 8.096 2.5 15c0 6.239 4.571 11.41 10.547 12.349v-8.736H9.872V15h3.175v-2.754c0-3.132 1.865-4.862 4.722-4.862 1.367 0 2.797.244 2.797.244v3.075h-1.575c-1.553 0-2.037.963-2.037 1.952V15h3.466l-.554 3.613h-2.912v8.736C22.929 26.41 27.5 21.238 27.5 15c0-6.904-5.596-12.5-12.5-12.5z"/></g><defs><clipPath id="eclip0_1095_3426"><rect/></clipPath></defs></svg><svg viewBox="0 0 24 24" fill="none" id="gift" xmlns="http://www.w3.org/2000/svg"><path d="M20.25 7.5H3.75a.75.75 0 00-.75.75v3c0 .414.336.75.75.75h16.5a.75.75 0 00.75-.75v-3a.75.75 0 00-.75-.75zM19.5 12v6.75a.75.75 0 01-.75.75H5.25a.75.75 0 01-.75-.75V12M12 7.5v12M16.247 6.44C15.178 7.5 12 7.5 12 7.5s0-3.178 1.06-4.247a2.254 2.254 0 013.187 3.188zM7.754 6.44C8.823 7.5 12 7.5 12 7.5s0-3.178-1.06-4.247a2.254 2.254 0 00-3.187 3.188z"/></svg><svg viewBox="0 0 16 16" fill="none" id="globus" xmlns="http://www.w3.org/2000/svg"><path d="M8 14A6 6 0 108 2a6 6 0 000 12zM2 8h12"/><path d="M8 13.838c1.38 0 2.5-2.614 2.5-5.838S9.38 2.163 8 2.163 5.5 4.776 5.5 8c0 3.224 1.12 5.838 2.5 5.838z"/></svg><svg viewBox="0 0 30 30" id="instagram" xmlns="http://www.w3.org/2000/svg"><g clip-path="url(#hclip0_1095_3429)"><path d="M15 11.25a3.75 3.75 0 100 7.5 3.75 3.75 0 000-7.5zm0-2.5a6.25 6.25 0 110 12.5 6.25 6.25 0 010-12.5zm8.125-.313a1.563 1.563 0 11-3.125 0 1.563 1.563 0 013.125 0zM15 5c-3.092 0-3.598.009-5.036.072-.98.047-1.638.178-2.248.415-.542.21-.934.462-1.35.88-.391.377-.692.839-.88 1.35-.237.612-.369 1.268-.413 2.247C5.006 11.344 5 11.826 5 15c0 3.093.009 3.598.072 5.036.047.979.178 1.638.414 2.246.213.544.463.936.878 1.35.421.42.812.672 1.35.88.617.238 1.275.37 2.25.415 1.38.066 1.862.073 5.036.073 3.093 0 3.598-.009 5.036-.073.978-.046 1.636-.177 2.246-.413a3.651 3.651 0 001.35-.878c.422-.421.673-.812.88-1.35.238-.616.37-1.275.415-2.25.066-1.38.073-1.862.073-5.036 0-3.092-.009-3.598-.073-5.036-.046-.978-.177-1.638-.415-2.248a3.64 3.64 0 00-.878-1.35 3.606 3.606 0 00-1.35-.88c-.613-.237-1.27-.369-2.248-.413C18.656 5.006 18.174 5 15 5zm0-2.5c3.396 0 3.82.013 5.152.075 1.332.063 2.238.271 3.035.581.825.318 1.52.748 2.215 1.442a6.137 6.137 0 011.442 2.215c.308.796.518 1.703.581 3.035.059 1.332.075 1.756.075 5.152s-.012 3.82-.075 5.152c-.063 1.332-.273 2.238-.581 3.035a6.105 6.105 0 01-1.442 2.215 6.144 6.144 0 01-2.215 1.442c-.796.308-1.703.518-3.035.581-1.332.059-1.756.075-5.152.075s-3.82-.012-5.152-.075c-1.332-.063-2.238-.273-3.036-.581a6.113 6.113 0 01-2.215-1.442 6.13 6.13 0 01-1.44-2.215c-.31-.796-.52-1.703-.582-3.035C2.516 18.82 2.5 18.396 2.5 15s.013-3.82.075-5.152c.063-1.333.271-2.238.581-3.036a6.1 6.1 0 011.442-2.215 6.121 6.121 0 012.215-1.44c.797-.31 1.702-.52 3.035-.582C11.18 2.516 11.604 2.5 15 2.5z"/></g><defs><clipPath id="hclip0_1095_3429"><rect/></clipPath></defs></svg><svg viewBox="0 0 16 16" fill="none" id="location" xmlns="http://www.w3.org/2000/svg"><path d="M8 8.5a2 2 0 100-4 2 2 0 000 4z"/><path d="M13 6.5c0 4.5-5 8-5 8s-5-3.5-5-8a5 5 0 1110 0z"/></svg><svg viewBox="0 0 16 16" fill="none" id="mail" xmlns="http://www.w3.org/2000/svg"><path d="M2 3.5h12V12a.5.5 0 01-.5.5h-11A.5.5 0 012 12V3.5z"/><path d="M14 3.5L8 9 2 3.5"/></svg><svg viewBox="0 0 24 57" id="mouse" xmlns="http://www.w3.org/2000/svg"><path fill-rule="evenodd" clip-rule="evenodd" d="M23.143 26.426V11.935C23.143 5.813 18.154.851 12 .851 5.846.852.857 5.814.857 11.934v14.492c0 6.12 4.989 11.082 11.143 11.082 6.154 0 11.143-4.961 11.143-11.082zM12 0C5.373 0 0 5.343 0 11.934v14.492c0 6.591 5.373 11.935 12 11.935s12-5.343 12-11.935V11.935C24 5.343 18.627 0 12 0zM3.945 45.135a.43.43 0 01.6-.08l7.877 5.977 7.452-5.97a.43.43 0 01.602.064.424.424 0 01-.064.6l-7.715 6.18a.429.429 0 01-.528.007l-8.143-6.18a.424.424 0 01-.081-.598zM12 7.245a1.71 1.71 0 00-1.714 1.706v4.262A1.71 1.71 0 0012 14.918a1.71 1.71 0 001.714-1.705V8.951A1.71 1.71 0 0012 7.246z"/><path d="M3.945 50.135a.43.43 0 01.6-.08l7.877 5.977 7.453-5.97a.43.43 0 01.602.064.424.424 0 01-.065.6l-7.714 6.18a.43.43 0 01-.529.007l-8.143-6.18a.425.425 0 01-.08-.598z"/></svg><svg fill="none" viewBox="0 0 18 17" id="np" xmlns="http://www.w3.org/2000/svg"><path fill-rule="evenodd" clip-rule="evenodd" d="M13.957 4.948c.053-.016.122.016.191.105l3.133 2.97c.183.177.183.446 0 .577l-3.133 3.016c-.069.089-.138.11-.191.083-.053-.027-.086-.104-.086-.217v-6.34c0-.11.033-.178.086-.194zM8.597 0h.222l.213.086 3.224 3.104c.139.177.092.312-.138.312H10.78a.404.404 0 00-.413.4v2.304c0 .223-.185.4-.462.4H7.558a.407.407 0 01-.416-.4V3.902c0-.223-.183-.4-.416-.4H5.298c-.23 0-.277-.135-.138-.312L8.386.086 8.597 0zM3.547 4.882c.058.027.094.104.094.217v6.472c0 .113-.036.18-.094.201-.056.022-.136 0-.23-.067L.137 8.601c-.183-.132-.183-.4 0-.577l3.18-3.06c.094-.088.174-.11.23-.082zM7.563 9.975h2.348c.277 0 .463.178.463.4v2.439c0 .266.183.443.413.443h1.245c.23 0 .321.131.138.266L9.038 16.58a.471.471 0 01-.325.135.465.465 0 01-.321-.135l-3.133-3.058c-.185-.135-.094-.266.136-.266h1.336c.233 0 .416-.177.416-.443v-2.438c0-.223.186-.4.416-.4z" fill="#ED1C24"/></svg><svg viewBox="0 0 16 16" id="phone" xmlns="http://www.w3.org/2000/svg"><path d="M12 13.5v-11a1 1 0 00-1-1H5a1 1 0 00-1 1v11a1 1 0 001 1h6a1 1 0 001-1z" fill="none"/><path d="M8 4.5A.75.75 0 108 3a.75.75 0 000 1.5z"/></svg><svg viewBox="0 0 12 12" id="rotate-arrow" xmlns="http://www.w3.org/2000/svg"><path d="M11.5 1a.5.5 0 00-.5-.5H6.5a.5.5 0 000 1h4v4a.5.5 0 001 0V1zM1.354 11.354l10-10-.708-.708-10 10 .708.708z"/></svg><svg viewBox="0 0 20 20" fill="none" id="search" xmlns="http://www.w3.org/2000/svg"><path d="M9.063 15.625a6.562 6.562 0 100-13.125 6.562 6.562 0 000 13.125zM13.703 13.703L17.5 17.5"/></svg><svg viewBox="0 0 12 22" fill="none" id="thin-arrow" xmlns="http://www.w3.org/2000/svg"><path d="M11 21L1 11 11 1"/></svg><svg viewBox="0 0 24 24" fill="none" id="zoom" xmlns="http://www.w3.org/2000/svg"><path d="M7.875 10.875h6M10.875 7.875v6M10.875 18.75a7.875 7.875 0 100-15.75 7.875 7.875 0 000 15.75zM16.445 16.444L21.002 21"/></svg></svg>